<svg width="82" height="82" viewBox="0 0 82 82" fill="none" xmlns="http://www.w3.org/2000/svg">
<path d="M35.4184 4.1523C37.416 -0.912571 44.584 -0.912578 46.5816 4.1523L54.4689 24.1509C55.0788 25.6972 56.3028 26.9212 57.8491 27.5311L77.8477 35.4184C82.9126 37.416 82.9126 44.584 77.8477 46.5816L57.8491 54.4689C56.3028 55.0788 55.0788 56.3028 54.4689 57.8491L46.5816 77.8477C44.584 82.9126 37.416 82.9126 35.4184 77.8477L27.5311 57.8491C26.9212 56.3028 25.6972 55.0788 24.1509 54.4689L4.1523 46.5816C-0.912571 44.584 -0.912578 37.416 4.1523 35.4184L24.1509 27.5311C25.6972 26.9212 26.9212 25.6972 27.5311 24.1509L35.4184 4.1523Z" fill="#FFCC23"/>
</svg>
