<svg width="170" height="60" viewBox="0 0 170 60" fill="none" xmlns="http://www.w3.org/2000/svg">
<path d="M48.7218 20.4021L42.0508 25.5005V34.1135V42.7266L54.9115 42.7154L67.7665 42.6986L67.7833 38.6579L67.7945 34.6116H70.145H72.4956V30.2799V25.9482L69.4959 23.5585C67.8449 22.2489 66.4682 21.1632 66.4346 21.1464C66.3618 21.124 64.2967 22.9317 64.2967 23.0213C64.2967 23.0437 65.0523 23.6817 65.9757 24.426C66.8991 25.1703 67.6882 25.8139 67.733 25.8531C67.7945 25.9147 67.7945 26.5135 67.7442 29.5524C67.7106 31.5503 67.6658 33.4699 67.649 33.8113L67.6154 34.4437H64.1792H60.743V30.3415V26.2449L62.4219 24.5659C63.3453 23.6425 64.1009 22.8646 64.0953 22.831C64.0953 22.803 63.9106 22.6239 63.6923 22.4336C63.4685 22.2489 61.5545 20.598 59.4278 18.7735C57.3067 16.9491 55.5271 15.4212 55.4823 15.382C55.4095 15.3205 54.4358 16.0424 48.7218 20.4021Z" fill="#11141E"/>
<path d="M84.109 19.7753C82.2232 20.1334 80.8187 21.1519 80.0464 22.7187C79.6547 23.5189 79.5428 24.0058 79.5092 24.985C79.4645 26.2609 79.6995 27.2178 80.2871 28.1803C80.9921 29.3218 82.1617 30.1612 83.6054 30.5641C84.137 30.7096 84.2265 30.7152 85.3401 30.7152C86.4313 30.7152 86.5544 30.704 87.0524 30.5697C87.6735 30.4018 88.2947 30.1276 88.7647 29.8143C89.0893 29.6016 89.9007 28.8686 89.9007 28.7902C89.9007 28.7567 88.6136 27.5647 88.1212 27.1451C87.9981 27.0387 87.9981 27.0387 87.6456 27.3745C87.2259 27.7606 86.9181 27.9565 86.4592 28.1075C85.3904 28.4657 84.1873 28.2139 83.4151 27.4752C82.8723 26.9604 82.5925 26.3057 82.5366 25.4327C82.475 24.4702 82.7716 23.6085 83.376 23.0041C83.9411 22.4389 84.5902 22.1871 85.4968 22.1871C86.3473 22.1871 87.0188 22.4669 87.6735 23.0936L88.0093 23.4182L88.955 22.5732L89.9007 21.7283L89.7944 21.5828C89.6601 21.3981 89.218 20.9784 88.9214 20.749C88.3842 20.3349 87.5784 19.9879 86.739 19.7977C86.1123 19.6634 84.7861 19.6466 84.109 19.7753Z" fill="#11141E"/>
<path d="M95.4147 19.7308C94.5305 19.8595 93.624 20.1952 92.9021 20.6541C92.6839 20.7996 92.281 21.1465 92.0012 21.4263C90.7254 22.7246 90.2217 24.532 90.6079 26.4122C91.0555 28.5834 92.7119 30.1559 95.0565 30.6371C95.5602 30.7434 95.7672 30.7546 96.5898 30.7322C97.3788 30.7155 97.6362 30.6819 98.0895 30.5644C100.21 30.0048 101.671 28.5331 102.163 26.457C102.264 26.0261 102.275 25.8471 102.253 25.0413C102.225 23.978 102.135 23.5919 101.738 22.7749C100.943 21.1297 99.4492 20.0777 97.4571 19.7532C96.8864 19.6636 95.9575 19.6524 95.4147 19.7308ZM97.1382 22.2713C97.6362 22.4 98.0111 22.6182 98.3804 22.9932C99.0016 23.6143 99.2926 24.4425 99.231 25.4274C99.1918 26.0373 99.1079 26.3563 98.8505 26.8375C98.1566 28.1358 96.5058 28.6394 95.1181 27.9735C94.1444 27.5034 93.5457 26.4738 93.5401 25.2595C93.5401 23.799 94.2843 22.6966 95.549 22.2937C95.9407 22.1706 96.7017 22.1594 97.1382 22.2713Z" fill="#11141E"/>
<path d="M103.447 21.0958V22.2989H106.049H108.651L105.965 25.4886L103.279 28.6726V29.6015V30.5248H108.064H112.848V29.3497V28.1746H110.078C108.556 28.1746 107.308 28.1578 107.308 28.1298C107.308 28.1074 108.506 26.6693 109.966 24.9346L112.624 21.7785V20.8328V19.8927H108.036H103.447V21.0958Z" fill="#11141E"/>
<path d="M112.809 19.9599C112.825 19.9991 113.732 21.5324 114.829 23.3622L116.821 26.6917V28.6055V30.5249H118.332H119.843V28.6279V26.7253L121.46 24.0225C122.344 22.534 123.262 21.0007 123.497 20.6034L123.922 19.8928H122.456H120.99L119.854 21.7786C119.233 22.8194 118.667 23.7651 118.595 23.8826L118.46 24.1009L117.207 21.9968L115.954 19.8984L114.364 19.8928C113.116 19.8928 112.786 19.9096 112.809 19.9599Z" fill="#11141E"/>
<path d="M96.2827 37.1021V41.8301H96.7303H97.1779V37.1021V32.3742H96.7303H96.2827V37.1021Z" fill="#11141E"/>
<path d="M99.8863 32.4242C99.5062 32.5863 99.4056 33.1284 99.6907 33.447C99.8416 33.6147 99.8863 33.6315 100.171 33.6315C100.456 33.6315 100.501 33.6147 100.652 33.447C101.01 33.0502 100.781 32.4409 100.255 32.3962C100.115 32.3851 99.9478 32.3962 99.8863 32.4242Z" fill="#11141E"/>
<path d="M110.151 32.463C109.726 32.6921 109.737 33.3517 110.162 33.5752C110.615 33.81 111.168 33.5026 111.168 33.0163C111.168 32.5245 110.598 32.217 110.151 32.463Z" fill="#11141E"/>
<path d="M83.2578 35.1242C81.6247 35.3983 80.5005 36.763 80.5005 38.4745C80.5005 39.4364 80.8249 40.253 81.4513 40.8794C82.4524 41.8862 84.1359 42.1658 85.4614 41.5506C85.8026 41.394 86.278 41.0025 86.4906 40.7005L86.6024 40.5495L86.2612 40.3201L85.9201 40.0852L85.6964 40.3425C85.5509 40.5047 85.3272 40.6669 85.0588 40.8011C84.7064 40.9745 84.5778 41.0081 84.1527 41.0305C83.1404 41.092 82.3574 40.7452 81.882 40.0237C81.5687 39.5539 81.4401 39.0953 81.4401 38.4745C81.4457 37.065 82.2399 36.103 83.5654 35.8961C84.3652 35.7786 85.1874 36.0415 85.6684 36.5784L85.9257 36.8637L86.2557 36.6288C86.6472 36.3547 86.6472 36.3491 86.1997 35.9017C85.5398 35.2417 84.382 34.9341 83.2578 35.1242Z" fill="#11141E"/>
<path d="M90.4316 35.102C89.3745 35.2418 88.3902 35.9465 87.9483 36.8694C87.6575 37.4846 87.5792 37.8314 87.5904 38.5305C87.6072 40.0518 88.4629 41.2375 89.8723 41.7017C90.2526 41.8248 90.4148 41.8472 90.9909 41.8472C91.567 41.8472 91.7292 41.8248 92.1151 41.7017C93.2001 41.3438 94.0055 40.4937 94.2907 39.3974C94.3914 39.0115 94.4026 38.0607 94.3131 37.6244C94.2796 37.4623 94.1509 37.1155 94.0279 36.8638C93.4071 35.5942 91.9809 34.8951 90.4316 35.102ZM91.7851 35.9857C92.4674 36.187 93.0994 36.8191 93.312 37.5014C93.7482 38.9164 93.2281 40.2811 92.048 40.8348C91.3992 41.1369 90.4875 41.1145 89.822 40.7845C88.6363 40.186 88.1553 38.5361 88.7873 37.1994C89.2962 36.1367 90.5602 35.6222 91.7851 35.9857Z" fill="#11141E"/>
<path d="M116.165 35.1408C115.5 35.2975 114.885 35.661 114.577 36.0861L114.415 36.3098V35.7169V35.1185H113.967H113.52V38.4743V41.8301H113.967H114.415V40.1354C114.415 39.207 114.443 38.2226 114.471 37.9485C114.627 36.5838 115.533 35.8344 116.932 35.9127C117.91 35.9686 118.498 36.4272 118.699 37.2942C118.755 37.5235 118.777 38.1611 118.777 39.7159V41.8301H119.225H119.678L119.661 39.4363C119.644 37.1152 119.639 37.0369 119.516 36.7125C119.242 35.9854 118.766 35.5044 118.056 35.2415C117.592 35.0737 116.691 35.0234 116.165 35.1408Z" fill="#11141E"/>
<path d="M124.014 35.1517C122.76 35.4258 121.804 36.3657 121.552 37.5629C121.39 38.3238 121.485 39.1462 121.815 39.8175C122.056 40.321 122.71 40.97 123.208 41.205C123.409 41.3001 123.739 41.4176 123.935 41.4679C124.36 41.563 125.256 41.5798 125.675 41.4903C126.307 41.356 126.968 40.9588 127.292 40.5224L127.454 40.2987V40.9197C127.454 41.6861 127.393 42.0386 127.175 42.4861C126.822 43.2022 126.156 43.5099 124.976 43.5099C124.053 43.5099 123.303 43.2973 122.649 42.8498L122.33 42.626L122.123 42.9505C122.011 43.1239 121.916 43.2917 121.916 43.3197C121.916 43.4092 122.615 43.84 122.99 43.9799C123.667 44.2316 124.181 44.3211 125.021 44.3156C126.285 44.3156 127.018 44.0694 127.577 43.4652C127.93 43.0792 128.086 42.777 128.237 42.1952C128.344 41.7812 128.349 41.5686 128.349 38.4357V35.1181H127.93H127.51V35.7391V36.3601L127.247 36.0636C126.906 35.6887 126.419 35.3699 125.949 35.2244C125.446 35.0678 124.54 35.0342 124.014 35.1517ZM125.86 36.0188C127.247 36.444 127.879 38.072 127.202 39.4651C126.749 40.3882 125.67 40.8973 124.523 40.7294C123.174 40.5392 122.358 39.5322 122.43 38.1559C122.47 37.4287 122.621 37.0874 123.113 36.5951C123.415 36.293 123.588 36.1699 123.835 36.0748C124.512 35.8286 125.177 35.8062 125.86 36.0188Z" fill="#11141E"/>
<path d="M99.7524 38.4743V41.8301H100.2H100.647V38.4743V35.1185H100.2H99.7524V38.4743Z" fill="#11141E"/>
<path d="M102.025 35.4373C102.103 35.6163 102.774 37.1264 103.513 38.7987L104.86 41.8357L105.336 41.8189L105.817 41.8021L106.063 41.2428C106.197 40.9352 106.857 39.4475 107.534 37.9318C108.205 36.4217 108.759 35.1688 108.759 35.1521C108.759 35.1353 108.563 35.1185 108.317 35.1185H107.875L106.628 37.943C105.94 39.4922 105.364 40.7674 105.347 40.7674C105.33 40.7674 104.765 39.5034 104.089 37.9542L102.853 35.1465L102.366 35.1297L101.879 35.1129L102.025 35.4373Z" fill="#11141E"/>
<path d="M110.051 38.4743V41.8301H110.499H110.946V38.4743V35.1185H110.499H110.051V38.4743Z" fill="#11141E"/>
</svg>
