<svg width="170" height="59" viewBox="0 0 170 59" fill="none" xmlns="http://www.w3.org/2000/svg">
<g clip-path="url(#clip0_69_3233)">
<path d="M131.231 31.5245C118.871 34.565 96.9032 33.7287 85.0069 31.0785C69.757 27.6819 50.2603 28.4584 38.3706 31.5451C46.3978 30.9262 60.8336 30.3934 77.2045 35.878C90.8461 40.591 113.914 44.2887 131.231 41.029V31.5245Z" fill="#11141E"/>
<path d="M83.6204 27.0588H81.3899V19.0424H83.6204V27.0588Z" fill="#11141E"/>
<path d="M41.9753 22.5876H40.8486L40.8483 20.4699H42.0934C42.8609 20.4699 43.1312 20.9643 43.1312 21.4879C43.1312 22.0348 42.7742 22.5876 41.9753 22.5876ZM41.9754 19.0607H38.6641V27.079H40.8487V24.0248H42.5374C44.3232 24.0248 45.2289 23.1777 45.2289 21.5066C45.2289 19.8152 44.3492 19.0607 41.9754 19.0607Z" fill="#11141E"/>
<path d="M50.3694 25.7462C49.2005 25.7462 48.5034 24.7528 48.5034 23.088C48.5034 20.4875 49.9193 20.2836 50.3535 20.2836C50.9958 20.2836 52.0731 20.6467 52.0731 23.074C52.0731 24.7462 51.4362 25.7462 50.3694 25.7462ZM50.4292 18.9068C47.9391 18.9068 46.3923 20.4972 46.3923 23.0581C46.3923 25.6765 47.8203 27.1794 50.3092 27.1794C52.7722 27.1794 54.2424 25.6099 54.2424 22.9849C54.2424 20.3552 52.8883 18.9068 50.4292 18.9068Z" fill="#11141E"/>
<path d="M55.6479 23.1783C55.6479 20.4972 57.1446 18.8954 59.6526 18.8954C61.6227 18.8954 62.8604 19.8756 62.9369 21.4563H60.8002C60.6476 20.7654 60.1998 20.387 59.4767 20.387C58.6359 20.387 57.7878 21.1912 57.7878 22.9852C57.7878 25.3876 58.8278 25.7465 59.4472 25.7465C60.2806 25.7465 60.7497 25.3354 60.8891 24.5001H63.0546C62.9777 26.1813 61.6569 27.2233 59.5516 27.2233C57.7707 27.2233 55.6479 26.5215 55.6479 23.1783Z" fill="#11141E"/>
<path d="M66.7307 24.0129L67.9684 20.5323L69.1801 24.0129H66.7307ZM69.2395 19.0349H66.8484C66.7754 19.2147 63.7824 26.6633 63.6255 27.0521H65.6367C65.6993 26.8758 66.2169 25.4216 66.2169 25.4216H69.6434C69.6434 25.4216 70.149 26.8742 70.2115 27.0521H72.5148C72.3556 26.6617 69.3117 19.2136 69.2395 19.0349Z" fill="#11141E"/>
<path d="M76.8747 22.4403H75.5565V20.471L76.9194 20.4745C77.787 20.4745 78.0321 20.9128 78.0321 21.385C78.0321 21.9646 77.848 22.4403 76.8747 22.4403ZM79.9216 25.1785C79.9216 23.1737 78.5362 22.997 78.5362 22.997C78.5362 22.997 80.134 22.9526 80.1006 20.9809C80.0762 19.6453 79.558 19.0096 76.5951 19.0427H73.4014V27.0591H75.5565V23.9297H76.8592C77.6814 23.9297 77.7952 24.6876 77.7952 25.5039C77.7952 26.0816 78.001 26.8072 78.2286 27.0591H80.3876C80.1538 26.548 79.9216 25.9072 79.9216 25.1785Z" fill="#11141E"/>
<path d="M93.185 24.818C93.185 24.0391 92.2161 23.8106 91.2786 23.5899C89.9637 23.2812 88.747 22.7826 88.747 21.2467C88.747 19.8863 90.0623 18.8602 91.806 18.8602C93.1 18.8602 94.0258 19.1312 94.5567 19.6671C95.0724 20.1883 95.1062 20.8485 95.1062 21.2502V21.2579H93.0053C92.9901 20.8663 92.8686 20.1894 91.9101 20.1894C91.3171 20.1894 90.8872 20.5405 90.8872 21.0232C90.8872 21.7433 91.5485 21.9161 92.9967 22.2956C94.255 22.6229 95.3847 23.048 95.3847 24.6268C95.3847 26.1907 94.0969 27.2028 92.1027 27.2028C89.7812 27.2028 88.6289 26.3052 88.5664 24.4792H90.6476C90.7019 25.3138 91.2002 25.8284 91.9843 25.8284C92.6919 25.8284 93.185 25.4123 93.185 24.818Z" fill="#11141E"/>
<path d="M100.781 18.9811L99.3177 24.9481L97.8631 18.9919H95.6418L98.023 27.0125H100.353L102.069 20.7659H102.069L103.786 27.0125H106.115L108.496 18.9919H106.276L104.82 24.9481L103.358 18.9811H100.781Z" fill="#11141E"/>
<path d="M115.042 19.0023V20.392H111.626V22.1153H114.776V23.5502H111.626V25.4685H115.145V27.019H109.482V19.0023H115.042Z" fill="#11141E"/>
<path d="M119.313 24.0532L120.549 20.5746L121.761 24.0532H119.313ZM121.834 19.0192H119.443C119.371 19.1994 116.377 26.6467 116.221 27.0364H118.232C118.295 26.86 118.812 25.4058 118.812 25.4058H122.239C122.239 25.4058 122.745 26.8577 122.807 27.0364H125.111C124.951 26.6464 121.908 19.1982 121.834 19.0192Z" fill="#11141E"/>
<path d="M131.231 19.0022V20.5243H128.745V27.019H126.633V20.5243H124.102V19.0022H131.231Z" fill="#11141E"/>
</g>
<defs>
<clipPath id="clip0_69_3233">
<rect width="92.8607" height="25.9718" fill="white" transform="translate(38.3696 16.2964)"/>
</clipPath>
</defs>
</svg>
