<svg width="169" height="59" viewBox="0 0 169 59" fill="none" xmlns="http://www.w3.org/2000/svg">
<g clip-path="url(#clip0_69_3248)">
<path d="M35.9434 35.2203H36.1709V25.2197H35.9434V35.2203Z" fill="#11141E"/>
<path d="M44.5255 25.7191C43.7634 26.3528 43.6691 26.459 43.1011 27.3051C42.5299 26.459 42.4356 26.3528 41.6743 25.7191C42.4356 25.0861 42.5299 24.9807 43.1011 24.1346C43.6707 24.9807 43.7634 25.0861 44.5255 25.7191Z" fill="#11141E"/>
<path d="M44.6139 35.463C44.4704 35.3679 44.3769 35.2482 44.3135 35.1301C44.2627 35.0548 44.2358 34.9509 44.2168 34.8534C44.1835 34.6886 44.2001 34.5625 44.2001 34.5625V27.4886L41.7183 29.571C41.9608 29.8262 41.9957 30.1393 41.9981 30.2606C42.0005 30.2923 41.9981 30.3129 41.9981 30.3129V34.7718C41.9981 36.1376 42.9635 36.8478 42.9635 36.8478L44.6139 35.463Z" fill="#11141E"/>
<path d="M63.0309 25.7195C62.272 26.3533 62.1761 26.4594 61.605 27.3055C61.0369 26.4594 60.9411 26.3533 60.179 25.7195C60.9411 25.0865 61.0369 24.9811 61.605 24.135C62.1761 24.9811 62.272 25.0865 63.0309 25.7195Z" fill="#11141E"/>
<path d="M63.12 35.4634C62.9789 35.3683 62.883 35.2486 62.8204 35.1305C62.7688 35.0552 62.7395 34.9513 62.7244 34.8538C62.6935 34.6889 62.7046 34.5629 62.7046 34.5629V27.489L60.2244 29.5714C60.4661 29.8266 60.5018 30.1397 60.5066 30.261C60.5073 30.2927 60.5066 30.3133 60.5066 30.3133V34.7722C60.5066 36.138 61.4712 36.8482 61.4712 36.8482L63.12 35.4634Z" fill="#11141E"/>
<path d="M47.8416 29.1756C47.8416 29.1756 48.0104 29.9001 48.968 29.9001C48.968 29.9001 49.526 29.9215 50.1332 29.3088L51.2176 28.2212C50.7134 28.4836 50.2228 28.4963 49.8946 28.4582C49.8003 28.4511 49.6639 28.4313 49.5046 28.375C49.4959 28.3726 49.4888 28.3702 49.4888 28.3702H49.4903C49.2208 28.2727 48.899 28.073 48.6462 27.6544L46.502 29.4578C46.502 29.4578 45.9749 29.9358 45.9749 30.7443C45.9749 30.7443 45.8908 32.1379 47.6807 33.0011C47.6807 33.0011 48.6731 33.4759 49.2732 33.8921C49.2732 33.8921 49.6655 34.1513 49.6655 34.5897C49.6655 34.5897 49.6941 35.2579 48.9323 35.2579C48.9323 35.2579 47.6942 35.3284 47.6601 33.4894L45.6665 35.1414C45.6665 35.1414 46.1294 36.8345 47.7219 36.8345C47.7219 36.8345 49.3453 36.8797 50.589 35.1889C50.589 35.1889 51.2089 34.3812 51.2089 33.5814C51.2089 33.5814 51.3151 32.2068 49.4951 31.4078C49.4951 31.4078 48.7016 31.086 47.9803 30.5692C47.9803 30.5692 47.5253 30.2981 47.5253 29.7892C47.5253 29.7892 47.4778 29.4887 47.8416 29.1756Z" fill="#11141E"/>
<path d="M66.385 29.1752C66.385 29.1752 66.5539 29.8997 67.5114 29.8997C67.5114 29.8997 68.0703 29.9211 68.6798 29.3084L69.7618 28.2208C69.2569 28.4832 68.767 28.4959 68.4396 28.4578C68.3437 28.4507 68.2082 28.4309 68.0489 28.3746C68.0401 28.3722 68.0338 28.3698 68.0338 28.3698C67.7651 28.2723 67.4417 28.0726 67.1912 27.654L65.0454 29.4574C65.0454 29.4574 64.5183 29.9354 64.5183 30.7439C64.5183 30.7439 64.4343 32.1375 66.2265 33.0007C66.2265 33.0007 67.2174 33.4755 67.819 33.8917C67.819 33.8917 68.2106 34.1509 68.2106 34.5892C68.2106 34.5892 68.2375 35.2575 67.4758 35.2575C67.4758 35.2575 66.2384 35.328 66.2035 33.489L64.2131 35.1409C64.2131 35.1409 64.6729 36.8341 66.2661 36.8341C66.2661 36.8341 67.888 36.8793 69.1324 35.1885C69.1324 35.1885 69.7539 34.3808 69.7539 33.5809C69.7539 33.5809 69.8585 32.2064 68.037 31.4074C68.037 31.4074 67.2451 31.0856 66.5261 30.5687C66.5261 30.5687 66.0719 30.2976 66.0719 29.7887C66.0719 29.7887 66.022 29.4883 66.385 29.1752Z" fill="#11141E"/>
<path d="M30.763 28.1835C30.763 28.1835 30.6933 28.1732 30.5855 28.1732C30.2203 28.1732 29.0288 28.3078 29.0288 30.0405C29.0304 30.0722 29.0621 30.8335 29.3243 31.5212L29.4257 31.7826L29.4717 31.5069C29.478 31.4697 29.6364 30.5879 30.4809 30.5879C30.553 30.5879 30.6307 30.5942 30.7099 30.6077L30.7978 30.6228L30.8303 28.193L30.763 28.1835Z" fill="#11141E"/>
<path d="M36.5476 25.1026L36.0685 25.5801L35.5918 25.1026L36.0685 24.6235L36.5476 25.1026Z" fill="#11141E"/>
<path d="M57.8529 28.3803L56.9721 27.4955L54.8325 29.2721C54.8325 27.9212 54.0698 27.4884 54.0698 27.4884L52.2512 28.9796C52.451 29.2063 52.5097 29.4481 52.5271 29.594C52.5398 29.6717 52.5327 29.7351 52.5327 29.7351V34.6503C52.5327 36.2208 53.4824 36.8376 53.4824 36.8376L55.2027 35.4352C55.01 35.3036 54.9165 35.1553 54.8705 35.0372C54.8396 34.9722 54.8285 34.9001 54.8261 34.8573C54.8245 34.8327 54.8245 34.8168 54.8245 34.8168V29.8556C55.2621 29.5219 55.6355 29.5401 55.6355 29.5401C56.4283 29.5401 56.4093 30.1815 56.4093 30.1815V34.594V37.0794C56.4093 37.0794 58.6203 36.289 58.6203 34.594V30.2195C58.6203 29.1255 57.8529 28.3803 57.8529 28.3803Z" fill="#11141E"/>
<path d="M32.5509 26.1667C32.5509 26.1667 32.5509 26.1223 32.5549 26.0486C32.5549 26.0414 32.5564 26.0335 32.5564 26.0271C32.566 25.7869 32.6143 25.289 32.7895 24.9053C31.8279 25.5253 31.0668 26.3102 31.0588 26.3189C30.507 26.8897 30.5292 27.5153 30.5324 27.5383V33.3711C30.5324 34.2432 30.201 34.5952 30.1939 34.6007L29.9434 34.8528L30.2771 34.7268C32.6326 33.8317 32.5525 31.8607 32.5509 31.8457V26.1667Z" fill="#11141E"/>
<path d="M36.8565 28.2563H36.8017C39.3414 26.5896 39.3168 24.302 39.3168 24.2798C39.3168 21.7045 37.3171 21.6751 37.2965 21.6751C36.399 21.6751 35.8637 22.2206 35.8463 22.2389L33.7198 24.1125C33.0252 24.907 33.1227 25.7753 33.1259 25.8022V31.7586C33.1259 32.9868 32.6581 33.4483 32.6549 33.4515L32.4012 33.6909L32.731 33.5799C35.2366 32.741 35.1612 30.6089 35.1612 30.5914V24.348C35.1612 23.743 35.3246 23.299 35.6338 23.0619C35.8701 22.8803 36.1088 22.8788 36.1199 22.8788C36.3561 22.8788 36.5623 22.966 36.7328 23.138C37.329 23.7367 37.3274 25.1647 37.3274 25.1798C37.3274 27.8535 36.0509 28.2825 36.039 28.2872L35.9843 28.3031V28.6195L36.0564 28.625C38.2607 28.7923 38.2607 31.2448 38.2607 31.3495C38.2607 34.0097 36.7272 34.7741 36.4782 34.8811C35.5363 34.2555 34.5959 33.9399 33.6785 33.9399C31.4774 33.9399 29.9685 35.7763 29.4238 36.5621C30.0629 36.2616 30.6584 36.1165 31.0873 36.0451C31.2404 36.015 31.3942 35.9983 31.5496 35.9904C31.6725 35.9801 31.7431 35.9793 31.7431 35.9793C32.2632 35.9793 32.8 36.1006 33.3439 36.3361L33.3622 36.3448C33.6714 36.4923 34.0512 36.566 34.4936 36.566C35.7884 36.566 37.1895 35.946 37.245 35.9198C39.5809 34.9707 40.2723 32.9496 40.2786 32.9266C40.2953 32.8734 40.3048 32.8409 40.3048 32.8378C40.5196 32.0789 40.522 31.3503 40.522 31.3209C40.522 28.4775 37.7183 28.2563 36.8565 28.2563Z" fill="#11141E"/>
<path d="M33.6848 22.4961C33.615 22.5104 33.5413 22.5183 33.4661 22.5223C33.432 22.5255 33.409 22.5255 33.409 22.5255C33.409 22.5255 33.3955 22.5271 33.3813 22.5271C33.2996 22.5271 32.993 22.4985 32.4771 22.1316C32.443 22.1055 31.6181 21.4755 30.9627 21.4755C30.9627 21.4755 30.9477 21.4739 30.9199 21.4739C30.698 21.4739 29.9317 21.5317 29.2669 22.2751C29.2439 22.3012 28.7447 22.9217 28.453 23.6809L28.4316 23.7332C29.1084 23.2339 29.6465 23.2751 29.6465 23.2751C29.6465 23.2751 30.1053 23.2791 30.5744 23.6508C30.6022 23.6745 31.286 24.2364 31.9232 24.2364C31.9232 24.2364 31.9549 24.2411 32.0127 24.2411C32.3582 24.2411 33.5691 24.0842 34.7165 22.0991C34.3393 22.3519 33.9415 22.4557 33.6848 22.4961Z" fill="#11141E"/>
<path d="M132.347 25.7198C131.587 26.3536 131.492 26.4597 130.921 27.3058C130.35 26.4597 130.254 26.3536 129.495 25.7198C130.254 25.0868 130.35 24.9814 130.921 24.1353C131.492 24.9814 131.587 25.0868 132.347 25.7198Z" fill="#11141E"/>
<path d="M132.436 35.4634C132.293 35.3683 132.198 35.2486 132.135 35.1305C132.085 35.0552 132.055 34.9513 132.04 34.8538C132.007 34.6889 132.022 34.5629 132.022 34.5629V27.489L129.54 29.5714C129.781 29.8266 129.817 30.1397 129.822 30.261C129.824 30.2927 129.822 30.3133 129.822 30.3133V34.7722C129.822 36.138 130.786 36.8482 130.786 36.8482L132.436 35.4634Z" fill="#11141E"/>
<path d="M125.066 29.1771C125.066 29.1771 125.234 29.9016 126.191 29.9016C126.191 29.9016 126.751 29.923 127.359 29.3102L128.443 28.2227C127.939 28.4851 127.448 28.4977 127.119 28.4597C127.026 28.4526 126.888 28.4327 126.728 28.3765C126.721 28.3741 126.714 28.3717 126.714 28.3717C126.446 28.2742 126.123 28.0745 125.871 27.6559L123.728 29.4593C123.728 29.4593 123.2 29.9373 123.2 30.7458C123.2 30.7458 123.116 32.1393 124.906 33.0026C124.906 33.0026 125.899 33.4774 126.499 33.8936C126.499 33.8936 126.892 34.1528 126.892 34.5911C126.892 34.5911 126.92 35.2594 126.159 35.2594C126.159 35.2594 124.92 35.3299 124.885 33.4909L122.892 35.1428C122.892 35.1428 123.353 36.836 124.947 36.836C124.947 36.836 126.569 36.8812 127.815 35.1904C127.815 35.1904 128.434 34.3826 128.434 33.5828C128.434 33.5828 128.541 32.2083 126.72 31.4093C126.72 31.4093 125.927 31.0874 125.207 30.5706C125.207 30.5706 124.752 30.2995 124.752 29.7906C124.752 29.7906 124.703 29.4902 125.066 29.1771Z" fill="#11141E"/>
<path d="M99.5347 35.1763C99.4895 35.0819 99.4935 34.9804 99.4935 34.9804V25.5019C99.4935 24.192 98.8306 23.7789 98.8306 23.7789L96.9483 25.2839C97.3455 25.5994 97.3075 25.9428 97.3075 25.9428V28.5538C96.9538 28.0717 96.1046 27.5421 96.1046 27.5421L92.9465 30.1706C93.2026 30.3982 93.1717 30.6035 93.1717 30.6035V33.8521C93.1717 35.9422 95.1096 36.9326 95.1096 36.9326L97.2988 35.1342C97.2988 36.2031 98.2478 36.9429 98.2478 36.9429L99.8463 35.6338C99.664 35.4696 99.5767 35.3015 99.5347 35.1763ZM96.3092 34.9661C95.3546 34.9661 95.3776 34.0828 95.3776 34.0828V29.5299L95.4981 29.4094C96.3092 29.9486 96.8587 30.7201 96.8587 30.7201C97.2876 31.287 97.2988 31.9745 97.2988 31.9745V34.4896C96.7802 34.9979 96.3092 34.9661 96.3092 34.9661Z" fill="#11141E"/>
<path d="M106.135 28.5195L104.431 27.4556L101.149 30.178C101.281 30.2969 101.314 30.4618 101.322 30.5466V30.5474C101.327 30.5783 101.327 30.6005 101.327 30.6005V33.7415C101.327 33.7415 101.196 35.1075 102.492 35.8313C102.492 35.8313 103.415 36.3799 104.262 36.9372L106.873 34.7531C106.873 34.7531 107.356 34.3448 107.356 33.407V30.5545C107.356 30.5545 107.423 29.2909 106.135 28.5195ZM104.968 35.3429C104.968 35.3429 104.361 35.1281 103.849 34.5628C103.849 34.5628 103.506 34.256 103.506 33.4965V29.7126C103.506 29.7126 103.48 29.3725 103.739 29.1212L104.655 29.7689C104.655 29.7689 105.137 30.1249 105.137 30.7099V34.6461C105.137 34.6461 105.171 35.0932 104.968 35.3429Z" fill="#11141E"/>
<path d="M140.067 35.0358C140.03 34.9803 140 34.8963 139.982 34.7726C139.967 34.6751 139.973 34.6093 139.973 34.6093V29.8231C139.973 29.8231 140.007 28.206 138.527 27.3848C138.527 27.3848 136.353 27.4213 134.351 29.3261V30.1243C134.351 30.1243 135.282 28.9638 136.559 28.5088C136.559 28.5088 137.808 28.7316 137.808 30.3193V30.7323L135.59 31.4386C135.59 31.4386 133.562 31.9967 133.562 33.9054C133.562 33.9054 133.549 35.8705 135.702 36.7488L137.808 35.0414C137.856 35.5614 138.057 36.2883 138.72 36.7766L140.37 35.3886C140.218 35.2808 140.125 35.1539 140.067 35.0358ZM137.808 34.404C137.586 34.6157 137.141 34.9779 136.667 34.9779C136.667 34.9779 135.924 35.0628 135.924 34.1012V32.7156C135.924 32.7156 135.915 32.0474 136.67 31.7042L137.808 31.1873V34.404Z" fill="#11141E"/>
<path d="M79.3146 27.889L79.2425 27.8851C79.2425 27.8851 79.2219 27.8835 79.1791 27.8835C78.8868 27.8835 77.4307 27.9714 77.4338 29.712C77.4338 29.746 77.4758 30.5129 77.7515 31.1023L77.8569 31.3281L77.8941 31.0809C77.9005 31.0469 78.0399 30.234 78.8947 30.234C78.9985 30.234 79.1078 30.2459 79.2235 30.2705L79.3146 30.2879V27.889Z" fill="#11141E"/>
<path d="M90.6304 28.3817L89.7504 27.4969L87.6108 29.2735C87.6108 27.9226 86.8489 27.4898 86.8489 27.4898L85.0295 28.981C85.2301 29.2077 85.2904 29.4495 85.307 29.5954C85.3157 29.6731 85.3118 29.7365 85.3118 29.7365V34.6517C85.3118 36.2222 86.2623 36.839 86.2623 36.839L87.9818 35.4366C87.7899 35.305 87.6964 35.1567 87.6488 35.0386C87.6195 34.9736 87.61 34.9015 87.6052 34.8587C87.6044 34.8341 87.6044 34.8182 87.6044 34.8182V29.857C88.0436 29.5233 88.4162 29.5415 88.4162 29.5415C89.2074 29.5415 89.1884 30.1829 89.1884 30.1829V34.5955V37.0808C89.1884 37.0808 91.4002 36.2904 91.4002 34.5955V30.2209C91.4002 29.1269 90.6304 28.3817 90.6304 28.3817Z" fill="#11141E"/>
<path d="M114.336 28.3814L113.456 27.4967L111.315 29.2733C111.315 27.9224 110.554 27.4895 110.554 27.4895L108.734 28.9808C108.934 29.2075 108.994 29.4493 109.011 29.5952C109.022 29.6729 109.017 29.7363 109.017 29.7363V34.6515C109.017 36.222 109.967 36.8388 109.967 36.8388L111.686 35.4363C111.495 35.3047 111.4 35.1565 111.354 35.0384C111.323 34.9734 111.312 34.9012 111.31 34.8584C111.308 34.8338 111.308 34.818 111.308 34.818V29.8568C111.745 29.523 112.118 29.5413 112.118 29.5413C112.911 29.5413 112.894 30.1826 112.894 30.1826V34.5952V37.0806C112.894 37.0806 115.104 36.2902 115.104 34.5952V30.2207C115.104 29.1266 114.336 28.3814 114.336 28.3814Z" fill="#11141E"/>
<path d="M120.191 35.0045C119.236 35.0045 119.027 34.349 118.985 33.959C120.263 33.1377 121.247 32.1112 121.247 32.1112C121.834 31.504 121.833 30.7399 121.833 30.7399C121.833 30.0478 121.245 29.4026 121.245 29.4026C120.387 28.4173 119.366 27.5675 119.366 27.5675L116.642 29.7213C116.737 29.8473 116.767 29.9813 116.776 30.0605C116.784 30.1009 116.781 30.1319 116.781 30.1319V33.7497C116.781 34.9078 117.378 35.5626 117.378 35.5626C118.075 36.3877 118.976 36.9379 118.976 36.9379L121.795 34.6462C121.23 34.903 120.622 34.976 120.345 34.9958C120.249 35.0093 120.191 35.0045 120.191 35.0045ZM118.983 30.0344C120.107 30.8556 120.058 31.7838 120.058 31.7838C120.058 32.613 119.306 33.1908 118.983 33.4017V30.0344Z" fill="#11141E"/>
<path d="M81.9924 22.4966C81.9243 22.5108 81.8514 22.5188 81.7753 22.5227C81.7389 22.5259 81.7159 22.5259 81.7159 22.5259C81.7159 22.5259 81.7064 22.5275 81.6897 22.5275C81.6073 22.5275 81.2991 22.499 80.7848 22.132C80.7499 22.1059 79.9257 21.4759 79.2704 21.4759C79.2704 21.4759 79.2553 21.4743 79.2292 21.4743C79.0073 21.4743 78.2402 21.5322 77.5722 22.2755C77.554 22.3016 77.0531 22.9221 76.7607 23.6813L76.7417 23.7336C77.4161 23.2344 77.9541 23.2756 77.9541 23.2756C77.9573 23.2756 78.4138 23.2795 78.8821 23.6512C78.9106 23.675 79.5945 24.2368 80.2308 24.2368C80.2308 24.2368 80.2625 24.2416 80.3204 24.2416C80.6675 24.2416 81.8768 24.0847 83.0234 22.0996C82.647 22.3523 82.2492 22.4562 81.9924 22.4966Z" fill="#11141E"/>
<path d="M81.0056 26.1896C81.0056 26.0065 81.0183 25.8417 81.0381 25.6958C81.0683 25.3994 81.1237 25.0214 81.2268 24.7019L81.2212 24.7035C80.1116 25.3471 79.3769 26.3481 79.3682 26.3624C78.9901 26.9394 79.0052 27.6575 79.0052 27.6876V32.031C79.0052 32.7864 78.6977 33.1636 78.6937 33.1668L78.509 33.3864L78.7777 33.2881C81.0381 32.4614 81.0064 30.6258 81.0056 30.6075V26.1896Z" fill="#11141E"/>
<path d="M83.6338 33.2069V25.0399C83.6338 25.0399 83.5585 23.1924 84.6812 21.8849C83.4411 22.7722 82.243 23.9179 82.2319 23.9298C81.5112 24.6323 81.5921 25.4879 81.5952 25.5157V34.0902C81.5952 34.9656 80.9895 35.2233 80.9609 35.2352C80.819 35.3002 80.6755 35.3319 80.5304 35.3319C80.0206 35.3319 79.6526 34.9323 79.6503 34.9283L78.943 34.1291C78.2254 33.3116 77.3921 33.2854 77.2962 33.2854C76.7855 33.2854 76.355 33.4646 76.0132 33.8143C75.2259 34.6278 75.1514 36.1161 75.1482 36.5625C75.5875 35.9956 76.0505 35.8061 76.3272 35.7434C76.4208 35.7228 76.4969 35.7141 76.5477 35.7133C76.5691 35.7133 76.5802 35.7133 76.5802 35.7133C76.5952 35.7133 76.6032 35.7133 76.6103 35.7141C77.1273 35.7141 77.4611 35.9996 77.4714 36.0067L77.8195 36.2565C79.1468 37.2238 80.8539 36.5364 81.2567 36.3524C81.8418 36.059 82.2882 35.7292 82.588 35.4683C82.7069 35.374 82.8195 35.2669 82.9273 35.1424L83.1612 34.8887C83.744 34.0649 83.6362 33.2442 83.6338 33.2069Z" fill="#11141E"/>
</g>
<defs>
<clipPath id="clip0_69_3248">
<rect width="112.574" height="16.244" fill="white" transform="translate(28.113 21.1604)"/>
</clipPath>
</defs>
</svg>
