<svg width="170" height="59" viewBox="0 0 170 59" fill="none" xmlns="http://www.w3.org/2000/svg">
<path d="M100.419 30.0248C101.867 30.0278 103.286 30.0189 104.776 30.0322C104.281 31.5847 103.809 33.0643 103.327 34.5722C103.164 34.5618 103.027 34.5766 102.904 34.541C102.189 34.3345 101.479 34.3627 100.76 34.5321C100.267 34.6479 99.7634 34.7371 99.2584 34.7935C98.0669 34.9272 96.9661 34.6257 95.9634 33.9883C95.1389 33.4639 94.7348 32.6558 94.5625 31.7184C94.3055 30.3279 94.7631 29.1231 95.5801 28.0386C96.6274 26.651 98.0565 25.8518 99.7397 25.4908C100.742 25.2754 101.744 25.2843 102.717 25.6319C103.917 26.0598 104.77 26.8412 105.098 28.1158C105.163 28.3669 105.163 28.5214 105.104 28.7413C104.857 28.8215 102.344 28.8467 101.864 28.7725C101.849 28.7576 101.828 28.7427 101.821 28.7249C101.539 28.0935 100.851 27.8395 100.132 27.9613C99.2435 28.1099 98.5141 28.5244 97.9897 29.2642C97.6762 29.7054 97.5633 30.212 97.6153 30.7453C97.6718 31.3321 97.9823 31.7659 98.5037 32.0244C99.1068 32.323 99.7427 32.3765 100.378 32.1284C100.699 32.0036 100.988 31.8268 101.069 31.4198C100.701 31.2965 100.306 31.4569 99.9046 31.2965C100.041 30.8597 100.233 30.469 100.419 30.0248Z" fill="#11141E"/>
<path d="M132.188 34.5066C131.894 35.4293 131.6 36.3504 131.3 37.2954C130.203 37.3043 129.147 37.3087 128.027 37.3087C128.079 37.1215 128.107 36.9952 128.147 36.8719C128.804 34.8275 129.461 32.7846 130.117 30.7417C130.355 30.0003 130.59 29.2559 130.832 28.5145C130.972 28.0866 131.065 28.0242 131.5 28.0955C132.252 28.2218 132.985 28.0911 133.723 27.9737C134.631 27.8296 135.549 27.7642 136.457 27.9366C137.38 28.1104 138.112 28.5888 138.54 29.4595C138.853 30.0969 138.891 30.7684 138.724 31.4445C138.394 32.792 137.616 33.8009 136.377 34.4412C135.833 34.722 135.237 34.8038 134.638 34.8394C133.842 34.8884 133.056 34.8275 132.31 34.5096C132.291 34.4992 132.266 34.5066 132.188 34.5066ZM132.812 32.6004C132.891 32.636 132.942 32.6761 132.992 32.6791C133.465 32.7044 133.94 32.7593 134.41 32.7341C134.907 32.7073 135.368 32.5246 135.658 32.0848C135.955 31.6302 136.109 31.125 136.057 30.5753C136.026 30.2469 135.888 29.9676 135.601 29.7819C135.053 29.4253 134.188 29.3852 133.689 30.1296C133.601 30.2588 133.524 30.4014 133.474 30.5485C133.266 31.1443 133.066 31.7446 132.867 32.3448C132.844 32.4161 132.835 32.4949 132.812 32.6004Z" fill="#11141E"/>
<path d="M57.6257 34.1084C57.1533 34.2123 54.561 34.1841 54.2817 34.0638C54.9339 31.8651 55.6247 29.6739 56.3377 27.4485C56.7463 27.441 57.1607 27.389 57.5708 27.4945C58.064 27.6223 58.5408 27.6119 59.0385 27.4722C59.9016 27.2286 60.787 27.1098 61.6872 27.1707C62.118 27.2004 62.5355 27.2955 62.9306 27.4797C64.0552 28.0011 64.4741 29.1004 64.2053 30.2191C64.0002 31.0748 63.7135 31.9097 63.461 32.7535C63.3615 33.0892 63.2604 33.425 63.152 33.7578C63.1119 33.8825 63.0495 34.0014 63.0064 34.1024C62.5815 34.2064 59.9179 34.1871 59.6401 34.0742C59.6699 33.9643 59.6966 33.8469 59.7322 33.731C60.0546 32.6837 60.3785 31.6378 60.7023 30.5905C60.7632 30.3944 60.8286 30.1968 60.6369 29.9457C60.5656 29.922 60.4319 29.8403 60.2968 29.8388C59.9818 29.8358 59.6654 29.8729 59.349 29.8908C59.0474 29.9071 58.8795 30.0765 58.7993 30.3558C58.7369 30.5727 58.6671 30.7881 58.6017 31.0035C58.3165 31.932 58.0328 32.8605 57.7461 33.789C57.7119 33.8959 57.6673 33.9984 57.6257 34.1084Z" fill="#11141E"/>
<path d="M121.284 28.0804H124.567C124.536 28.2364 124.522 28.3657 124.485 28.4875C124.207 29.3953 123.924 30.3015 123.643 31.2078C123.586 31.392 123.521 31.5733 123.484 31.762C123.419 32.0829 123.573 32.3176 123.9 32.3235C124.271 32.331 124.644 32.2879 125.014 32.2418C125.244 32.2121 125.338 32.019 125.4 31.814C125.599 31.1662 125.8 30.5184 125.999 29.8707C126.145 29.3953 126.287 28.9184 126.434 28.4444C126.472 28.3271 126.522 28.2142 126.574 28.0819H129.756C129.89 28.2156 129.798 28.3464 129.761 28.4682C129.526 29.2482 129.29 30.0252 129.048 30.8022C128.688 31.9566 128.324 33.111 127.962 34.2638C127.925 34.3812 127.88 34.4971 127.828 34.6427C127.513 34.7259 127.177 34.7452 126.867 34.6635C126.176 34.4852 125.518 34.5253 124.834 34.7259C124.352 34.867 123.835 34.9071 123.328 34.9547C122.691 35.0141 122.061 34.9413 121.463 34.6932C120.302 34.2104 119.826 33.2149 120.073 31.9937C120.218 31.2761 120.474 30.5808 120.683 29.8781C120.825 29.4012 120.97 28.9258 121.12 28.4519C121.162 28.3271 121.227 28.2097 121.284 28.0804Z" fill="#11141E"/>
<path d="M33.8224 24.8722C34.0006 24.8573 34.1551 24.8336 34.3111 24.8336C35.1696 24.8261 36.0296 24.8202 36.8881 24.8261C37.0663 24.8276 37.2846 24.7756 37.4094 25.0267C37.3648 25.1692 37.3173 25.3312 37.2638 25.4886C36.741 27.0274 36.2167 28.5662 35.6924 30.105C35.6671 30.1793 35.6464 30.2565 35.6211 30.3308C35.5142 30.6353 35.6063 30.8803 35.8647 31.1121H36.285C37.2802 31.1121 38.2753 31.1106 39.2705 31.1165C39.4324 31.118 39.5958 31.1566 39.7384 31.1759C39.872 31.6884 39.1101 33.8198 38.6838 34.1852C38.6303 34.1912 38.5635 34.203 38.4966 34.203C36.8465 34.2045 35.1948 34.2045 33.5447 34.203C33.1184 34.203 32.7129 34.1095 32.3534 33.8718C31.6167 33.3861 31.4118 32.6538 31.4816 31.8339C31.5142 31.4581 31.6316 31.0824 31.7549 30.7214C32.3727 28.9167 33.004 27.1165 33.6338 25.3163C33.6843 25.1722 33.7541 25.0326 33.8224 24.8722Z" fill="#11141E"/>
<path d="M48.6126 34.2947C48.0185 34.3096 47.3263 34.1759 46.6921 33.809C45.4341 33.0797 44.99 31.7771 45.5395 30.4314C45.8975 29.555 46.5169 28.8956 47.2788 28.3564C48.1923 27.7117 49.2038 27.3033 50.3133 27.1859C51.1852 27.0939 52.0555 27.1429 52.868 27.532C53.4636 27.8172 53.9567 28.2182 54.2523 28.8257C54.634 29.6085 54.5405 30.3868 54.1914 31.1458C53.7859 32.0251 53.1071 32.6668 52.317 33.1971C51.3471 33.8462 50.0355 34.317 48.6126 34.2947ZM49.5261 31.936C49.7682 31.8826 50.0177 31.8543 50.2494 31.7712C50.6698 31.6197 51.0485 31.3924 51.2817 30.9899C51.61 30.424 51.405 29.8922 50.802 29.6456C49.9939 29.3159 48.9275 29.8714 48.6275 30.3542C48.47 30.6096 48.3675 30.88 48.4567 31.1889C48.5874 31.6434 48.9676 31.9034 49.5261 31.936Z" fill="#11141E"/>
<path d="M113.944 34.8499C113.251 34.8633 112.59 34.74 111.979 34.4058C110.61 33.6542 110.166 32.2536 110.843 30.8455C111.318 29.8577 112.097 29.167 113.03 28.6398C114.065 28.0545 115.177 27.7515 116.373 27.805C117.024 27.8347 117.646 27.9818 118.219 28.3085C119.431 28.9992 119.868 30.1845 119.387 31.4931C119.164 32.1006 118.787 32.6086 118.32 33.0452C117.092 34.2008 115.63 34.8009 113.944 34.8499ZM114.72 32.4823C115.381 32.4407 115.962 32.2209 116.358 31.6654C116.789 31.0623 116.538 30.4088 115.817 30.2231C115.116 30.0419 114.522 30.2885 114.002 30.7311C113.631 31.0475 113.512 31.5139 113.671 31.8926C113.86 32.3412 114.239 32.4734 114.687 32.4808C114.698 32.4823 114.709 32.4823 114.72 32.4823Z" fill="#11141E"/>
<path d="M104.246 34.7037C104.948 32.4474 105.627 30.2728 106.307 28.0893C106.661 28.0893 107.001 28.0566 107.331 28.0967C107.843 28.1576 108.344 28.0922 108.849 28.0373C109.33 27.9853 109.816 27.9363 110.298 27.9407C110.584 27.9437 110.879 28.0269 111.15 28.1264C111.485 28.2497 111.62 28.4309 111.733 28.7874C111.219 29.3221 110.691 29.8747 110.16 30.4258C110.056 30.4198 109.967 30.4169 109.878 30.4109C109.294 30.3723 108.78 30.7229 108.616 31.2754C108.317 32.281 108.02 33.2881 107.721 34.2952C107.597 34.7171 107.53 34.7676 107.106 34.7676C106.292 34.7676 105.478 34.7691 104.664 34.7631C104.541 34.7631 104.415 34.729 104.246 34.7037Z" fill="#11141E"/>
<path d="M42.2061 27.4621H45.562C45.5456 27.5839 45.5456 27.6819 45.5189 27.7724C44.8953 29.8008 44.2672 31.8292 43.6391 33.8561C43.6123 33.9408 43.5722 34.0209 43.544 34.0937C43.2322 34.1932 40.4733 34.1917 40.1555 34.0818C40.8326 31.8693 41.5142 29.6583 42.2061 27.4621Z" fill="#11141E"/>
<path d="M44.8052 24.0457C45.1882 24.0308 45.543 24.1288 45.8696 24.3203C46.3565 24.6053 46.4871 25.0121 46.2615 25.5257C46.0225 26.069 45.5608 26.3704 45.0398 26.5812C44.5187 26.792 43.968 26.8469 43.4143 26.7266C43.2406 26.6895 43.064 26.6257 42.914 26.5322C42.3351 26.1759 42.2534 25.4262 42.7285 24.9378C43.346 24.3054 43.9383 24.0501 44.8052 24.0457Z" fill="#11141E"/>
<path d="M77.5757 41.5924C79.1948 40.8708 79.9096 39.478 80.4583 37.9555C80.5057 37.8236 80.4874 37.7421 80.3451 37.6917C80.2394 37.6542 80.1413 37.5952 80.0163 37.5341C79.8438 37.8654 79.6864 38.186 79.5128 38.4969C78.976 39.4544 78.3367 40.3293 77.4129 40.9576C76.8685 41.3276 76.2777 41.5431 75.6018 41.393C75.1404 41.29 74.8192 41.0134 74.5669 40.5813C76.793 40.2639 78.2656 38.9044 79.5258 37.2017C79.3716 37.0602 79.2282 36.9305 79.0396 36.7589C78.8908 36.9262 78.755 37.0881 78.6095 37.2403C77.7578 38.1249 76.8264 38.9076 75.6848 39.404C74.789 39.7943 73.8716 39.9541 72.9046 39.6721C72.2115 39.4705 71.7975 39.033 71.6725 38.3265C71.6595 38.2568 71.6606 38.1839 71.6541 38.1099C74.2866 38.6138 76.5548 37.7668 78.7043 36.3536C78.5793 36.1424 78.4726 35.9623 78.3551 35.7639C77.967 35.9247 77.5929 36.0888 77.2134 36.2357C76.2572 36.6045 75.2946 36.9691 74.2705 37.0977C73.1008 37.2446 71.929 37.3132 70.8025 36.8393C70.2398 36.6024 69.7504 36.2689 69.4119 35.7489C69.0497 35.1913 69.0044 34.5963 69.2135 33.9626C72.012 35.5999 74.9863 35.7542 78.0856 35.0916C78.0543 34.9233 78.0381 34.7603 77.9896 34.607C77.9724 34.5534 77.8775 34.4944 77.8161 34.4912C77.6619 34.4826 77.5056 34.5094 77.3493 34.5137C75.3323 34.5759 73.3477 34.399 71.4428 33.6774C70.5028 33.3214 69.662 32.8046 68.9613 32.0809C68.1862 31.28 67.9738 30.2292 68.4072 29.3328C68.5074 29.127 68.6659 28.949 68.8049 28.7453C68.8686 28.801 68.8977 28.8182 68.9149 28.8439C69.676 29.9408 70.699 30.7471 71.8158 31.4536C73.6388 32.6073 75.6245 33.345 77.7255 33.8039C77.7729 33.8146 77.8225 33.8189 77.8721 33.8221C77.8861 33.8232 77.9012 33.8093 77.9336 33.7943C77.9497 33.6442 77.981 33.4833 77.9745 33.3246C77.9724 33.2721 77.885 33.1981 77.8214 33.1745C76.4373 32.6717 75.1059 32.0509 73.8533 31.2853C72.0217 30.1659 70.4198 28.7882 69.3343 26.9032C68.7812 25.9425 68.5268 24.9218 68.8966 23.826C69.1542 23.0637 69.6415 22.5544 70.4845 22.4504C71.4418 27.0265 74.2651 30.196 78.1351 32.6309C78.2138 32.4529 78.3001 32.3178 78.3281 32.1709C78.3421 32.0991 78.2645 31.9855 78.1977 31.9276C77.5778 31.3936 76.9235 30.8961 76.3306 30.3332C74.0107 28.133 72.4745 25.4751 71.7781 22.3624C71.4795 21.0308 71.4957 19.6841 71.9495 18.3749C72.1878 17.6876 72.5791 17.1162 73.3121 16.8631C73.8565 16.6755 74.3923 16.7484 74.9248 16.9157C73.4382 23.2138 76.0395 29.128 78.8908 31.3432C79.0525 31.1695 79.2013 30.9712 79.3878 30.8168C80.593 29.8175 81.9632 29.5344 83.4433 30.0362C84.9654 30.5519 85.8925 31.6477 86.2019 33.2131C86.6676 35.5773 84.8749 37.8804 82.4634 38.0595C82.3372 38.0691 82.2176 38.0745 82.2693 38.2482C82.3146 38.3983 82.1842 38.6449 82.5291 38.6267C84.4588 38.528 86.1663 37.1653 86.7172 35.2653C87.5386 32.4336 85.7147 29.6062 82.7825 29.202C81.3487 29.0047 80.0691 29.3982 78.9598 30.3278C78.9102 30.3696 78.8596 30.4125 78.7809 30.479C77.0927 28.5533 76.0923 26.3296 75.7506 23.781C76.0201 23.7123 76.2939 23.6427 76.5947 23.5655C76.461 23.3928 76.3413 23.2534 76.2389 23.1023C76.0007 22.7527 75.8918 22.3678 75.9435 21.9421C75.964 21.7695 76.0319 21.6977 76.2281 21.6988C76.5214 21.7009 76.8146 21.6548 77.1078 21.6237C77.4808 21.5851 77.8527 21.5411 78.1987 21.5025C78.1837 21.2216 78.1405 20.9332 78.1589 20.648C78.1837 20.2674 78.2322 20.2792 78.617 20.2899C79.0482 20.3017 79.4816 20.2534 79.9128 20.218C80.3979 20.1784 80.8841 20.0143 81.2916 20.2502C81.4177 19.9779 81.5169 19.7205 81.6538 19.4868C81.7389 19.341 81.8726 19.3378 82.0548 19.4128C82.5679 19.6262 83.0962 19.8074 83.6255 19.9779C83.9834 20.0937 84.3175 20.2331 84.5752 20.5611C84.6259 20.4732 84.6647 20.4068 84.7013 20.3403C84.8285 20.1065 85.0269 19.9661 85.291 19.9607C85.3859 19.9586 85.5368 20.0197 85.5702 20.0926C85.8623 20.7359 86.4154 21.0983 86.9943 21.4328C87.3274 21.6258 87.6745 21.7942 88.0076 21.9872C88.3536 22.1866 88.4065 22.3045 88.2792 22.667C88.22 22.8353 88.2846 22.8964 88.4075 22.9757C88.9347 23.3156 89.52 23.3918 90.1291 23.3746C90.5194 23.3628 90.6778 23.6116 90.515 23.96C90.4827 24.0286 90.4547 24.1219 90.4752 24.1873C90.6422 24.7095 90.2197 25.5673 89.7065 25.8825C89.6871 25.8278 89.6656 25.7785 89.6516 25.727C89.5265 25.2552 89.2042 25.0526 88.718 25.1405C88.0992 25.252 87.6583 25.7206 87.5537 26.3757C87.5419 26.4486 87.53 26.5215 87.5257 26.5944C87.5063 26.93 87.5246 27.2463 87.8674 27.4458C88.2049 27.642 88.5434 27.7353 88.9142 27.5487C89.0069 27.5015 89.1039 27.4629 89.1988 27.4211C89.2257 27.434 89.2527 27.4479 89.2796 27.4608C89.1859 27.8007 89.1223 28.1534 88.9886 28.4772C88.8678 28.7699 88.3666 28.9297 88.0194 28.8418C87.8761 28.8053 87.7338 28.7678 87.5915 28.7303C87.4244 28.6852 87.3457 28.771 87.3112 28.92C87.1279 29.7188 87.5947 30.686 88.1262 30.9615C88.2642 31.0323 88.3903 31.1277 88.5132 31.2221C88.7741 31.4215 88.7827 31.6252 88.5487 31.8557C88.5143 31.89 88.4754 31.9211 88.4345 31.949C88.0636 32.1999 87.9839 32.4958 88.2081 32.8872C88.2997 33.048 88.4151 33.2067 88.5531 33.3289C88.7374 33.494 88.7762 33.6924 88.7266 33.9036C88.677 34.1149 88.483 34.1266 88.2965 34.1588C88.2178 34.1728 88.1337 34.2928 88.0981 34.3829C87.8879 34.9126 87.737 35.4712 87.4826 35.9783C86.7248 37.4859 85.4311 38.3136 83.8206 38.6932C83.4077 38.7907 82.9819 38.8411 82.5604 38.8969C82.3987 38.9183 82.3448 38.9526 82.361 39.137C82.4019 39.5992 82.4526 40.0677 82.4127 40.5266C82.3372 41.394 81.3843 41.9269 80.6275 41.5817C80.8194 41.2632 81.0814 40.9651 81.187 40.6188C81.3487 40.0859 81.4112 39.522 81.4985 38.9687C81.5341 38.7446 81.5126 38.512 81.5363 38.2846C81.5557 38.0992 81.5061 38.0059 81.3045 38.0059C81.201 38.0059 81.0975 37.9737 80.9854 37.9533C80.8884 38.4755 80.8065 38.9805 80.6976 39.4801C80.5618 40.0988 80.344 40.6917 79.9602 41.2021C79.5376 41.7629 79.0019 42.1135 78.2494 41.9837C77.9864 41.9366 77.7525 41.8411 77.5757 41.5924ZM84.2701 22.0547C84.269 21.6784 83.7365 21.3342 83.3743 21.4093C82.9463 21.4983 82.6369 21.9228 82.7286 22.3067C82.8051 22.623 83.0778 22.8482 83.3279 22.7785C83.2514 22.5008 83.122 22.1941 83.4314 21.9797C83.7171 21.7813 83.9898 22.029 84.2701 22.0547ZM87.0546 23.0219C87.2638 23.2792 87.4373 23.4936 87.6378 23.7413C87.8049 23.4218 87.9515 23.1441 88.1068 22.8482C87.7456 22.9082 87.4373 22.9586 87.0546 23.0219Z" fill="#11141E"/>
</svg>
