<svg width="170" height="59" viewBox="0 0 170 59" fill="none" xmlns="http://www.w3.org/2000/svg">
<g clip-path="url(#clip0_69_3325)">
<path d="M56.6003 32.007C55.7327 32.8694 54.4314 33.3373 53.2781 33.3373C50.0117 33.3373 48.7479 31.0683 48.7296 28.8929C48.7104 26.6991 50.0887 24.3356 53.2781 24.3356C54.4314 24.3356 55.601 24.7302 56.4685 25.5743L58.1296 23.9806C56.7715 22.6483 55.073 21.973 53.2781 21.973C48.5026 21.973 46.2568 25.4604 46.275 28.8939C46.2943 32.308 48.3709 35.6653 53.2781 35.6653C55.1855 35.6653 56.9408 35.0459 58.2998 33.7146L56.6003 32.007Z" fill="#11141E"/>
<path d="M64.7469 22.2343L58.7998 35.3631H61.5078L62.6439 32.8877H69.574L70.6919 35.3631H73.4191L67.4731 22.2343H64.7469ZM63.6472 30.58L66.109 24.9915L68.5727 30.58H63.6472Z" fill="#11141E"/>
<path d="M81.0632 22.2159C78.9612 22.2159 76.8583 22.2342 74.7573 22.2342V35.3641H77.2788V31.5004H81.0621C87.6193 31.4994 87.6001 22.2159 81.0632 22.2159ZM81.0632 29.2304H77.2799V24.5785H81.0632C84.2748 24.5785 84.2951 29.2304 81.0632 29.2304Z" fill="#11141E"/>
<path d="M92.9726 27.3367C91.3571 27.1485 89.9717 26.8292 89.9717 25.686C89.9717 24.7107 90.8757 23.9418 92.7597 23.9418C94.2232 23.9418 95.4941 24.6538 95.9532 25.4043L97.974 24.3924C96.9545 22.3665 94.7806 21.7847 92.6847 21.7847C90.2027 21.8051 87.4694 22.9106 87.4694 25.6108C87.4694 28.5551 90.0102 29.269 92.7597 29.5874C94.5485 29.7745 95.8772 30.281 95.8772 31.5187C95.8772 32.9446 94.3772 33.4887 92.78 33.4887C91.1443 33.4887 89.5866 32.851 88.9906 31.4078L86.8745 32.4767C87.8758 34.8769 89.9909 35.7027 92.7415 35.7027C95.7434 35.7027 98.3977 34.4457 98.3977 31.5187C98.3967 28.3863 95.7799 27.6733 92.9726 27.3367Z" fill="#11141E"/>
<path d="M108.529 29.7753C108.529 32.0249 107.383 33.3949 105.37 33.3949C103.354 33.3949 102.024 32.1378 102.024 29.7753V22.2554H99.603V29.7753C99.603 33.7315 102.246 35.6445 105.35 35.6445C108.604 35.6445 110.951 33.6573 110.951 29.7753V22.2554H108.529V29.7753V29.7753Z" fill="#11141E"/>
<path d="M114.809 22.2344H112.28V35.3632H121.709V33.0749H114.809V22.2344Z" fill="#11141E"/>
<path d="M132.921 24.2761L132.843 24.3544C132.662 24.5214 132.425 24.6148 132.179 24.6164C132.059 24.6261 131.938 24.6099 131.824 24.5688C131.711 24.5276 131.608 24.4626 131.522 24.378C131.436 24.2934 131.369 24.1913 131.326 24.0786C131.283 23.9659 131.264 23.8452 131.272 23.7248C131.265 23.4767 131.356 23.2359 131.526 23.0544C131.613 22.9721 131.715 22.9083 131.828 22.8668C131.94 22.8252 132.06 22.8069 132.179 22.8128C132.416 22.8082 132.645 22.8976 132.816 23.0612L132.892 23.1361L133.422 22.6257L133.342 22.5474C133.19 22.3936 133.009 22.2717 132.809 22.1887C132.609 22.1057 132.395 22.0634 132.179 22.0642C131.957 22.0559 131.736 22.0924 131.528 22.1713C131.321 22.2502 131.131 22.37 130.971 22.5236C130.662 22.8484 130.494 23.2819 130.503 23.7299C130.503 24.4837 130.947 25.3633 132.177 25.3633C132.398 25.3675 132.616 25.3279 132.821 25.247C133.026 25.1662 133.213 25.0455 133.37 24.892L133.449 24.8154L132.921 24.2761Z" fill="#11141E"/>
<path d="M132.127 20.7014C131.531 20.701 130.949 20.8773 130.453 21.2079C129.958 21.5385 129.572 22.0086 129.343 22.5587C129.115 23.1089 129.055 23.7143 129.171 24.2984C129.287 24.8825 129.574 25.4192 129.995 25.8404C130.416 26.2616 130.953 26.5485 131.537 26.6648C132.121 26.7811 132.727 26.7216 133.277 26.4938C133.828 26.266 134.298 25.8801 134.629 25.3849C134.96 24.8898 135.137 24.3076 135.137 23.7121C135.136 22.9142 134.819 22.1492 134.254 21.5848C133.69 21.0204 132.925 20.7027 132.127 20.7014V20.7014ZM134.35 23.7121C134.35 24.1521 134.22 24.5822 133.975 24.9481C133.731 25.3139 133.383 25.599 132.976 25.7674C132.57 25.9357 132.122 25.9796 131.691 25.8937C131.259 25.8077 130.862 25.5957 130.551 25.2844C130.24 24.9731 130.028 24.5766 129.943 24.145C129.857 23.7134 129.901 23.2661 130.07 22.8597C130.239 22.4532 130.524 22.1059 130.89 21.8617C131.257 21.6175 131.687 21.4873 132.127 21.4877C132.717 21.489 133.282 21.7238 133.698 22.1408C134.115 22.5577 134.349 23.1227 134.35 23.7121" fill="#11141E"/>
<path d="M122.869 20.7637V22.7894H124.947V35.8404H122.869V37.9037H127.265V20.7637H122.869Z" fill="#11141E"/>
<path d="M40.7222 37.9026H45.1171V35.8393H43.0377V22.7496H45.1171V20.7249H40.7222V37.9026Z" fill="#11141E"/>
</g>
<defs>
<clipPath id="clip0_69_3325">
<rect width="99.8766" height="17.1678" fill="white" transform="translate(35.2617 20.6985)"/>
</clipPath>
</defs>
</svg>
