<svg width="169" height="59" viewBox="0 0 169 59" fill="none" xmlns="http://www.w3.org/2000/svg">
<path d="M49.8555 21.1894V25.2359H53.9717H58.0879V29.2824V33.3289H53.9717H49.8555V37.3754V41.4219H58.0182H66.1809V29.2824V17.1429H58.0182H49.8555V21.1894Z" fill="#11141E"/>
<path d="M94.2418 21.3583C93.5721 21.5815 92.9025 22.307 92.6374 23.1022C92.2607 24.1765 92.0933 26.939 92.1909 30.6083C92.3025 35.2403 92.5397 36.189 93.7814 36.9145C94.3534 37.2494 94.5906 37.2912 96.0416 37.347C99.2226 37.4587 100.115 36.8029 100.492 34.0823C100.688 32.7011 100.688 25.8368 100.492 24.4416C100.255 22.7674 99.8504 22.0001 98.9017 21.4978C98.3715 21.2188 94.9673 21.1211 94.2418 21.3583ZM97.1717 24.6369C97.3251 24.8183 97.367 25.7252 97.367 29.1434C97.367 33.9289 97.381 33.887 96.4462 33.887C96.0137 33.887 95.8602 33.8172 95.6649 33.5103C95.4417 33.1755 95.4138 32.7429 95.4277 29.1434C95.4417 24.4974 95.4556 24.3998 96.3764 24.3998C96.7671 24.3998 97.0461 24.4835 97.1717 24.6369Z" fill="#11141E"/>
<path d="M74.4146 29.2831V37.0961H77.9025H81.3904L81.3067 36.7334C81.2509 36.5381 81.0835 35.7707 80.916 35.0313L80.6231 33.6779L79.1163 33.6361L77.6234 33.5942V32.1432V30.6783H79.5069H81.3904V29.0738V27.4694H79.5069H77.6095L77.6513 26.1021L77.6932 24.7488L80.2464 24.7069C82.2136 24.679 82.7995 24.7069 82.8553 24.8464C82.9111 24.9999 84.3203 36.7194 84.3203 36.9845C84.3203 37.0543 85.4783 37.0961 86.9013 37.0961C88.3244 37.0961 89.4824 37.0543 89.4824 36.9845C89.4824 36.831 91.2822 22.5723 91.3798 21.9863L91.4635 21.4701H89.7056C88.743 21.4701 87.9477 21.512 87.9477 21.5678C87.9338 22.2933 87.1106 32.4083 87.0548 32.4641C87.0129 32.506 86.9432 32.506 86.9292 32.4781C86.9013 32.4502 86.706 30.19 86.4967 27.4694C86.2875 24.7488 86.0921 22.2793 86.0503 21.9863L85.9666 21.4701H80.1906H74.4146V29.2831Z" fill="#11141E"/>
<path d="M102.042 29.2831V37.0961H105.391H108.739V35.3522V33.6082H107.065H105.391V27.5391V21.4701H103.717H102.042V29.2831Z" fill="#11141E"/>
<path d="M109.997 29.2831V37.0961H113.415C115.298 37.0961 116.833 37.0403 116.833 36.9706C116.833 36.9148 116.679 36.1614 116.484 35.3103C116.289 34.4592 116.135 33.7337 116.135 33.6919C116.135 33.65 115.48 33.6082 114.67 33.6082H113.205V32.1432V30.6783H115.019H116.833V29.0738V27.4694H115.019H113.205V26.0742V24.679H115.787H118.368V30.8876V37.0961H119.902H121.437L121.465 33.65L121.507 30.19L122.762 33.65L124.004 37.0961H125.511H127.018V29.2831V21.4701H125.553H124.088V24.9162C124.088 26.7997 124.046 28.3065 123.99 28.2507C123.934 28.2088 123.348 26.6741 122.679 24.8464L121.465 21.5399L115.731 21.498L109.997 21.4701V29.2831Z" fill="#11141E"/>
<path d="M128.556 29.2831V37.0961H131.974H135.392V36.7752C135.392 36.6078 135.239 35.8405 135.071 35.0731L134.764 33.6779L133.257 33.6361L131.765 33.5942V32.1432V30.6783H133.578H135.392V29.0738V27.4694H133.578H131.751L131.792 26.1021L131.834 24.7488L133.62 24.7069L135.392 24.6651V23.0746V21.4701H131.974H128.556V29.2831Z" fill="#11141E"/>
<path d="M33.8076 29.2835V33.3281H37.7127H41.6178V29.2835V25.2389H37.7127H33.8076V29.2835Z" fill="#11141E"/>
</svg>
