<svg width="169" height="60" viewBox="0 0 169 60" fill="none" xmlns="http://www.w3.org/2000/svg">
<g clip-path="url(#clip0_69_3369)">
<path d="M85.9952 23.4498C86.6595 23.4498 87.2838 23.4731 87.9052 23.4409C88.2672 23.4222 88.3311 23.5505 88.3286 23.8831C88.3131 25.9316 88.3208 27.9804 88.3208 30.0239C88.4166 30.0758 88.456 30.003 88.4998 29.959C89.4647 28.9902 90.4339 28.0261 91.4378 27.0971C91.6123 26.9356 91.7711 26.8491 92.0135 26.8518C93.0933 26.864 94.1734 26.8556 95.2533 26.8594C95.3708 26.8598 95.4982 26.8192 95.6669 26.9428C94.3193 28.261 93.0974 29.6767 91.736 30.9502C93.1586 32.758 94.5645 34.5444 96.0359 36.4142C95.7085 36.4142 95.4682 36.4142 95.228 36.4142C94.2588 36.4142 93.289 36.3947 92.3208 36.4244C91.9623 36.4354 91.7621 36.2725 91.5672 36.0252C90.8163 35.0722 90.0602 34.1234 89.3086 33.1763C89.2675 33.202 89.2553 33.2087 89.2442 33.2167C88.5179 33.7385 88.1501 34.4046 88.31 35.3325C88.3672 35.6644 88.4304 36.1301 88.2561 36.3321C88.0509 36.5699 87.5811 36.4028 87.2267 36.4106C86.6178 36.4238 86.0076 36.3948 85.3996 36.422C85.0694 36.4368 84.9878 36.3347 84.9892 36.0098C85.0021 33.1715 84.9967 30.3331 84.9967 27.4947C84.9967 26.2901 85.0092 25.0853 84.9886 23.8811C84.9828 23.5449 85.0563 23.3937 85.4146 23.4454C85.5909 23.4708 85.774 23.4498 85.9952 23.4498Z" fill="#11141E"/>
<path d="M104.339 31.242C103.777 31.7488 103.234 32.234 102.694 32.7218C102.402 32.986 102.168 33.3115 101.837 33.5884C102.078 33.5884 102.318 33.5884 102.559 33.5884C103.708 33.5884 104.858 33.5955 106.007 33.5831C106.268 33.5803 106.371 33.6381 106.363 33.9225C106.343 34.6421 106.348 35.3629 106.361 36.0828C106.365 36.3222 106.318 36.421 106.046 36.4201C103.069 36.4102 100.091 36.4104 97.1131 36.42C96.8466 36.4208 96.7733 36.3326 96.7957 36.0865C96.8133 35.8942 96.8314 35.6926 96.794 35.5062C96.563 34.3563 97.1846 33.6667 98.0293 33.0416C98.5577 32.6507 98.9779 32.1243 99.4748 31.6843C100.291 30.962 101.062 30.1883 101.834 29.4185C102.188 29.0663 102.405 28.6372 102.456 28.1192C102.54 27.256 102.013 26.8889 101.325 26.7903C100.378 26.6547 99.5603 26.9842 98.975 27.7577C98.8207 27.9616 98.7139 27.9506 98.5395 27.8526C97.8508 27.4653 97.1654 27.072 96.471 26.6953C96.2131 26.5554 96.191 26.4066 96.3548 26.1784C97.1935 25.0094 98.3392 24.3102 99.7336 24.0433C101.007 23.7996 102.275 23.8289 103.521 24.2699C105.613 25.0105 106.357 26.6859 105.918 28.7213C105.75 29.4989 105.349 30.158 104.783 30.7198C104.629 30.8733 104.501 31.0534 104.339 31.242Z" fill="#11141E"/>
<path d="M113.168 26.5251C113.168 29.7079 113.162 32.8491 113.176 35.9903C113.178 36.3348 113.091 36.4328 112.744 36.4232C111.832 36.3979 110.918 36.407 110.005 36.4197C109.76 36.4231 109.671 36.3672 109.672 36.101C109.681 32.2126 109.68 28.3241 109.672 24.4356C109.672 24.1807 109.741 24.1053 109.998 24.1093C110.938 24.124 111.88 24.1285 112.82 24.1075C113.132 24.1006 113.181 24.2199 113.174 24.491C113.157 25.1548 113.168 25.8193 113.168 26.5251Z" fill="#11141E"/>
<path fill-rule="evenodd" clip-rule="evenodd" d="M117.463 24.112C117.06 24.1136 116.654 24.1153 116.244 24.1153C116.095 24.1153 115.95 24.1162 115.807 24.1172C115.472 24.1194 115.152 24.1215 114.831 24.1109C114.594 24.103 114.492 24.1496 114.492 24.4236C114.502 28.3154 114.503 32.2072 114.491 36.0989C114.49 36.4124 114.632 36.4188 114.865 36.4179C116.402 36.4119 117.94 36.4092 119.477 36.4169C120.453 36.4217 121.42 36.3892 122.379 36.1718C124.21 35.7571 125.649 34.8056 126.525 33.1263C127.188 31.8568 127.264 30.4802 127.046 29.0853C126.768 27.3148 125.833 25.9999 124.281 25.1027C122.997 24.3609 121.595 24.1439 120.149 24.1198C119.259 24.1049 118.367 24.1084 117.463 24.112ZM120.954 33.5036C121.705 33.3612 122.377 33.0684 122.871 32.4072C123.5 31.7001 123.577 30.8729 123.561 30.0063C123.534 28.5148 122.552 27.4582 121.272 27.1171C120.51 26.9139 119.727 26.9245 118.945 26.935C118.722 26.938 118.499 26.941 118.276 26.9391C118.071 26.9373 118.071 27.057 118.072 27.1961L118.072 27.2109C118.072 27.5189 118.072 27.827 118.072 28.1351C118.073 29.8616 118.074 31.5882 118.068 33.3147C118.067 33.5381 118.143 33.6006 118.355 33.5922C118.654 33.5804 118.953 33.5856 119.252 33.5908C119.821 33.6007 120.39 33.6105 120.954 33.5036Z" fill="#11141E"/>
<path fill-rule="evenodd" clip-rule="evenodd" d="M45.7804 23.9132C45.789 23.5299 45.6795 23.3818 45.2632 23.4486C45.0162 23.4486 44.7724 23.4493 44.5309 23.45C43.9066 23.4517 43.2975 23.4534 42.6885 23.4433C42.4397 23.4392 42.3573 23.5016 42.3578 23.7647C42.3661 27.878 42.3663 31.9913 42.3574 36.1047C42.3568 36.3788 42.4591 36.4214 42.6962 36.4175C43.235 36.4087 43.774 36.4102 44.313 36.4118C44.5219 36.4124 44.7308 36.413 44.9397 36.413C45.5899 36.413 45.5899 36.413 45.6107 35.775L45.6107 35.7739C45.6111 35.7618 45.6221 35.7501 45.6362 35.735C45.6439 35.7269 45.6524 35.7178 45.6607 35.7071C45.8303 35.7706 45.9751 35.8743 46.1214 35.9791C46.2797 36.0925 46.4399 36.2072 46.6352 36.2735C47.5957 36.5997 48.5547 36.669 49.5284 36.409C51.071 35.9972 52.1452 35.0551 52.6683 33.529C52.9594 32.6799 53.0451 31.8197 52.9336 30.9124C52.7686 29.5702 52.2608 28.4364 51.1572 27.6417C49.6998 26.5924 48.1123 26.468 46.4592 27.1376C46.3054 27.1999 46.1632 27.2908 46.0088 27.3895C45.9333 27.4377 45.8549 27.4878 45.7708 27.5374C45.7708 27.186 45.7695 26.839 45.7681 26.4952C45.7648 25.6206 45.7615 24.7667 45.7804 23.9132ZM48.9844 33.2631C49.6106 32.5715 49.8168 31.0146 49.0359 30.0794C48.1383 29.0894 46.5778 29.283 45.9787 30.3715C45.5326 31.1818 45.5408 32.0726 45.9724 32.891C46.5575 34.0005 48.1774 34.1541 48.9844 33.2631Z" fill="#11141E"/>
<path fill-rule="evenodd" clip-rule="evenodd" d="M74.3624 31.4734C74.3053 29.8527 73.7396 28.4977 72.3615 27.5207C70.5237 26.427 68.7376 26.4463 66.9625 27.6044C66.9625 27.5762 66.9613 27.5463 66.96 27.5153C66.9571 27.4437 66.9539 27.3664 66.965 27.2912C67.0141 26.9609 66.9146 26.8333 66.5487 26.8471C65.7329 26.8778 64.9149 26.8665 64.0983 26.8511C63.8282 26.846 63.7135 26.892 63.7144 27.2039C63.7251 31.2749 63.7237 35.3459 63.7162 39.4169C63.7157 39.6715 63.7839 39.7483 64.0413 39.7438C64.9134 39.7285 65.7865 39.7197 66.658 39.7466C67.0288 39.7581 67.1481 39.6669 67.1388 39.2766C67.1188 38.43 67.1223 37.5829 67.1258 36.7006C67.1273 36.3494 67.1287 35.9926 67.1287 35.6281C67.3414 35.8471 67.5036 35.9851 67.6989 36.0818C68.5676 36.512 69.4624 36.6553 70.4352 36.5092C71.6354 36.3291 72.6177 35.7982 73.3482 34.8528C74.1097 33.8671 74.4062 32.7199 74.3624 31.4734ZM67.1116 31.1614C66.8117 32.6306 67.8349 34.0226 69.2558 33.837C69.7133 33.7456 70.1141 33.5809 70.394 33.2583C71.0566 32.4943 71.1469 31.2231 70.6156 30.3491C70.2296 29.7141 69.3737 29.3031 68.6562 29.4906C67.7543 29.7264 67.2957 30.259 67.1116 31.1614Z" fill="#11141E"/>
<path fill-rule="evenodd" clip-rule="evenodd" d="M54.5887 35.9172C55.417 36.4791 56.3584 36.5877 57.3622 36.5582C58.3005 36.4824 59.0847 36.1642 59.7295 35.347C59.7295 35.4525 59.7315 35.5427 59.7332 35.6226C59.7365 35.774 59.739 35.8889 59.7259 36.002C59.6897 36.3138 59.7799 36.4355 60.1246 36.4232C60.913 36.3952 61.7037 36.3951 62.4921 36.4232C62.837 36.4355 62.9024 36.3136 62.8928 36.002C62.8701 35.2609 62.8766 34.5197 62.883 33.7783C62.8928 32.655 62.9026 31.5314 62.811 30.4082C62.6797 28.7993 61.8969 27.6591 60.4249 27.109C59.084 26.6079 57.6915 26.6978 56.3189 26.8836C55.5738 26.9845 54.8361 27.2238 54.1642 27.6042C53.9233 27.7407 53.7734 27.844 53.9379 28.1928C54.0574 28.446 54.1826 28.6963 54.3078 28.9465C54.4755 29.2818 54.6432 29.6169 54.7967 29.9586C54.897 30.1818 55.0003 30.1633 55.1595 30.0534C55.995 29.4764 56.9361 29.284 57.9268 29.3589C58.6438 29.4131 59.3125 29.8107 59.4284 30.5553C59.4594 30.7541 59.4191 30.7637 59.2701 30.7634C59.1122 30.7631 58.9543 30.7639 58.7964 30.7647C58.4973 30.7661 58.1981 30.7676 57.8991 30.762C56.9918 30.7448 56.0928 30.7825 55.2262 31.0924C54.238 31.4458 53.5576 32.0892 53.4234 33.1616C53.2825 34.2872 53.6084 35.2524 54.5887 35.9172ZM57.3607 34.3127C57.9063 34.4533 58.4356 34.4263 58.9236 34.0311C59.3905 33.7089 59.5044 33.268 59.4809 32.7637C59.4735 32.605 59.3824 32.5915 59.2618 32.5918C59.082 32.5922 58.9021 32.5904 58.7223 32.5885C58.3344 32.5845 57.9466 32.5805 57.5599 32.5996C57.1059 32.6221 56.7171 33.0027 56.6627 33.4074C56.6191 33.7326 56.9679 34.2114 57.3607 34.3127Z" fill="#11141E"/>
<path fill-rule="evenodd" clip-rule="evenodd" d="M76.565 29.9494C77.4228 29.4206 78.3719 29.2048 79.4209 29.4248C80.0121 29.5424 80.4214 29.8035 80.6137 30.386C80.7211 30.7113 80.6453 30.7613 80.3444 30.7668C80.0449 30.7723 79.7452 30.7678 79.4455 30.7632C78.7806 30.7532 78.1155 30.7431 77.4522 30.8422C76.2523 31.0216 74.8608 31.6147 74.6574 33.1359C74.482 34.4485 75.032 35.6479 76.2296 36.1545C77.5209 36.7008 78.8257 36.7934 80.1222 36.0937C80.4026 35.9424 80.6038 35.7274 80.853 35.4611C80.8755 35.4371 80.8983 35.4127 80.9216 35.3879C80.9216 35.4829 80.923 35.5687 80.9243 35.6482C80.9269 35.81 80.9291 35.9458 80.9183 36.0806C80.8991 36.3187 80.9556 36.4252 81.23 36.4195C82.0185 36.4029 82.8076 36.4084 83.5964 36.4139C83.666 36.4144 83.7356 36.4149 83.8051 36.4154C83.9847 36.4166 84.0882 36.3891 84.0822 36.1709C84.0614 35.4157 84.0735 34.6597 84.0857 33.9037C84.1062 32.6282 84.1267 31.3529 83.9888 30.082C83.8281 28.6006 82.9891 27.6239 81.5937 27.0955C80.7537 26.7774 79.8892 26.7741 79.0173 26.7707C78.9711 26.7706 78.9249 26.7704 78.8787 26.7702C77.5799 26.7639 76.3752 27.1013 75.2295 27.6949C75.019 27.804 74.993 27.9042 75.1014 28.1083C75.1267 28.1562 75.1522 28.204 75.1776 28.2518C75.4411 28.7471 75.7053 29.2437 75.9237 29.759C76.0835 30.1358 76.1938 30.1782 76.565 29.9494ZM78.5914 34.3248C78.9898 34.4103 79.3919 34.4202 79.812 34.2508C80.4028 33.94 80.7472 33.513 80.6775 32.8298C80.6601 32.6596 80.6232 32.5844 80.4396 32.5875C80.2239 32.5912 80.0081 32.5894 79.7924 32.5876C79.4834 32.585 79.1745 32.5824 78.8663 32.5959C78.3632 32.6179 77.969 32.9584 77.9305 33.3535C77.8908 33.7619 78.2032 34.2416 78.5914 34.3248Z" fill="#11141E"/>
</g>
<defs>
<clipPath id="clip0_69_3369">
<rect width="86.135" height="21.1292" fill="white" transform="translate(41.5322 19.2825)"/>
</clipPath>
</defs>
</svg>
