<svg width="170" height="60" viewBox="0 0 170 60" fill="none" xmlns="http://www.w3.org/2000/svg">
<path fill-rule="evenodd" clip-rule="evenodd" d="M48.5188 17.5798H70.0611C72.0645 17.5798 73.3322 19.7304 72.3621 21.4833L70.4827 24.879H65.9842L63.5027 21.0838L59.1237 28.0902H49.9451L46.2282 21.502C45.2392 19.7488 46.5059 17.5798 48.5188 17.5798ZM51.3039 30.4987L57.1025 40.7768C58.1134 42.5687 60.6977 42.5582 61.694 40.7581L69.2304 27.1415H62.408L58.2479 33.783L56.0584 30.4987H51.3039Z" fill="#11141E"/>
<path d="M117.309 21.2289H112.493L106.476 34.1225C105.47 36.2764 107.043 38.7451 109.419 38.7451H121.526L123.715 34.585H112.626C111.95 34.585 111.5 33.8845 111.783 33.2696L117.309 21.2289Z" fill="#11141E"/>
<path d="M76.8467 24.2974L70.2249 38.7452H74.8958L77.6692 32.9065L85.6973 32.7605L87.5219 28.7464L79.7127 28.6004L81.3913 25.2432H89.5655L91.2441 21.2291H81.6283C79.5716 21.2291 77.7036 22.4278 76.8467 24.2974Z" fill="#11141E"/>
<path d="M92.3425 25.2427L94.0209 21.229H109.784L107.813 25.2427H102.559L96.2101 38.9621H91.3938L97.5237 25.2427H92.3425Z" fill="#11141E"/>
</svg>
