<svg width="169" height="60" viewBox="0 0 169 60" fill="none" xmlns="http://www.w3.org/2000/svg">
<rect x="36.5515" y="20.0524" width="3.91409" height="3.91419" fill="#11141E"/>
<rect x="36.5515" y="27.8884" width="3.91409" height="3.91419" fill="#11141E"/>
<rect x="36.5515" y="35.7247" width="3.91409" height="3.91419" fill="#11141E"/>
<rect x="44.384" y="20.0521" width="3.91409" height="3.91419" fill="#11141E"/>
<rect x="44.384" y="27.8884" width="3.91409" height="3.91419" fill="#11141E"/>
<rect x="44.3853" y="35.7247" width="3.91409" height="3.91419" fill="#11141E"/>
<rect x="67.8901" y="20.0522" width="3.91409" height="3.91419" fill="#11141E"/>
<rect x="67.8916" y="27.8892" width="3.91409" height="3.91419" fill="#11141E"/>
<rect x="52.2229" y="35.7249" width="3.91409" height="3.91419" fill="#11141E"/>
<rect x="52.2219" y="20.0524" width="11.7523" height="3.91754" fill="#11141E"/>
<rect x="52.2219" y="27.8888" width="11.7523" height="3.91754" fill="#11141E"/>
<rect x="60.0581" y="35.7249" width="11.7523" height="3.91754" fill="#11141E"/>
<rect x="85.238" y="23.9707" width="3.35781" height="12.3123" fill="#11141E"/>
<rect x="114.342" y="23.9709" width="3.35781" height="12.3123" fill="#11141E"/>
<path fill-rule="evenodd" clip-rule="evenodd" d="M127.212 23.9709H124.134L118.817 36.2832H122.175L123.014 34.0446H128.051L128.891 36.2832H132.248L127.212 23.9709ZM125.533 27.6087L123.854 31.5262H127.212L125.533 27.6087Z" fill="#11141E"/>
<path d="M90.2766 23.9707H93.6344L99.2308 30.6865V23.9707H102.868V36.283H99.2308L93.6344 29.0075V36.283H90.2766V23.9707Z" fill="#11141E"/>
<path d="M104.265 23.9708H113.22V26.4892H107.623V29.2875H112.66V31.8059H107.623V36.2831H104.265V23.9708Z" fill="#11141E"/>
</svg>
