<svg width="170" height="60" viewBox="0 0 170 60" fill="none" xmlns="http://www.w3.org/2000/svg">
<path d="M44.0356 27.2453C44.0356 26.3551 44.7218 25.6689 45.6491 25.6689C46.5764 25.6689 47.2626 26.3551 47.2626 27.2453V27.2824C47.2626 28.1726 46.5764 28.8588 45.6491 28.8588C44.7218 28.8588 44.0356 28.1726 44.0356 27.2824V27.2453ZM44.0356 34.2185C44.0356 33.3283 44.7218 32.6421 45.6491 32.6421C46.5764 32.6421 47.2626 33.3283 47.2626 34.2185V34.2556C47.2626 35.1458 46.5764 35.832 45.6491 35.832C44.7218 35.832 44.0356 35.1458 44.0356 34.2556V34.2185ZM49.9499 34.2927V24.1666C49.9499 23.3692 50.5804 22.7386 51.3779 22.7386H55.0129C59.093 22.7386 61.912 25.539 61.912 29.1926V29.2297C61.912 32.8832 59.093 35.7208 55.0129 35.7208H51.3779C50.5804 35.7208 49.9499 35.0902 49.9499 34.2927ZM52.8059 33.1429H55.0129C57.3497 33.1429 58.9261 31.5665 58.9261 29.2668V29.2297C58.9261 26.93 57.3497 25.3165 55.0129 25.3165H52.8059V33.1429ZM66.9792 35.9062C65.1061 35.9062 63.5668 34.8306 63.5668 32.8647V32.8276C63.5668 30.6577 65.2174 29.6562 67.5727 29.6562C68.5742 29.6562 69.2975 29.8232 70.0022 30.0643V29.8973C70.0022 28.7289 69.2789 28.0798 67.8694 28.0798C67.0905 28.0798 66.46 28.1911 65.9221 28.358C65.7552 28.4137 65.6439 28.4322 65.5141 28.4322C64.865 28.4322 64.3457 27.9315 64.3457 27.2824C64.3457 26.7816 64.661 26.3551 65.1061 26.1881C65.9963 25.8543 66.9607 25.6689 68.2775 25.6689C69.8168 25.6689 70.9295 26.0769 71.6343 26.7816C72.3761 27.5235 72.7099 28.6177 72.7099 29.953V34.4782C72.7099 35.2386 72.0979 35.832 71.3375 35.832C70.5215 35.832 69.9837 35.2571 69.9837 34.6636V34.6451C69.2975 35.4055 68.3516 35.9062 66.9792 35.9062ZM67.8324 33.9589C69.1491 33.9589 70.0393 33.2356 70.0393 32.2156V31.7148C69.5571 31.4923 68.9266 31.3439 68.2404 31.3439C67.0349 31.3439 66.293 31.8261 66.293 32.7163V32.7534C66.293 33.5138 66.9236 33.9589 67.8324 33.9589ZM79.5867 38.7252C78.27 38.7252 77.1201 38.5027 75.9517 38.039C75.4695 37.8535 75.1542 37.4641 75.1542 36.9448C75.1542 36.3142 75.6735 35.7949 76.3041 35.7949C76.4895 35.7949 76.6379 35.832 76.7677 35.8877C77.5838 36.2586 78.4554 36.4811 79.5125 36.4811C81.4413 36.4811 82.3501 35.5539 82.3501 33.7734V33.2912C81.5155 34.2927 80.6067 34.9047 79.1045 34.9047C76.7863 34.9047 74.6906 33.2171 74.6906 30.2683V30.2312C74.6906 27.2638 76.8234 25.5947 79.1045 25.5947C80.6438 25.5947 81.5526 26.2438 82.313 27.0784V27.0598C82.313 26.2994 82.9435 25.6689 83.7225 25.6689C84.5014 25.6689 85.132 26.2994 85.132 27.0784V33.4767C85.132 35.2571 84.7054 36.5553 83.8708 37.3899C82.9435 38.3172 81.5155 38.7252 79.5867 38.7252ZM79.9205 32.568C81.2929 32.568 82.3501 31.6221 82.3501 30.2683V30.2312C82.3501 28.8773 81.2929 27.9315 79.9205 27.9315C78.5481 27.9315 77.5096 28.8773 77.5096 30.2312V30.2683C77.5096 31.6407 78.5481 32.568 79.9205 32.568ZM89.9317 29.9715H94.1788C94.0118 28.7104 93.27 27.8573 92.0831 27.8573C90.9147 27.8573 90.1543 28.6919 89.9317 29.9715ZM95.8108 34.7378C94.9391 35.4797 93.8078 35.9433 92.3613 35.9433C89.3754 35.9433 87.1684 33.8476 87.1684 30.8061V30.769C87.1684 27.9315 89.1899 25.5947 92.0831 25.5947C95.4028 25.5947 96.8679 28.3209 96.8679 30.3795C96.8679 31.1956 96.293 31.7334 95.5512 31.7334H89.9688C90.247 33.0131 91.1372 33.6807 92.3983 33.6807C93.1773 33.6807 93.8264 33.4396 94.4013 33.0131C94.6053 32.8647 94.7908 32.7905 95.0875 32.7905C95.7181 32.7905 96.1817 33.2727 96.1817 33.9033C96.1817 34.2742 96.0148 34.5524 95.8108 34.7378ZM99.1543 34.4225V23.4804C99.1543 22.7015 99.7848 22.0709 100.564 22.0709C101.343 22.0709 101.973 22.7015 101.973 23.4804V34.4225C101.973 35.2015 101.343 35.832 100.564 35.832C99.7848 35.832 99.1543 35.2015 99.1543 34.4225ZM107.44 35.9062C105.567 35.9062 104.027 34.8306 104.027 32.8647V32.8276C104.027 30.6577 105.678 29.6562 108.033 29.6562C109.035 29.6562 109.758 29.8232 110.463 30.0643V29.8973C110.463 28.7289 109.74 28.0798 108.33 28.0798C107.551 28.0798 106.921 28.1911 106.383 28.358C106.216 28.4137 106.105 28.4322 105.975 28.4322C105.326 28.4322 104.806 27.9315 104.806 27.2824C104.806 26.7816 105.122 26.3551 105.567 26.1881C106.457 25.8543 107.421 25.6689 108.738 25.6689C110.277 25.6689 111.39 26.0769 112.095 26.7816C112.837 27.5235 113.171 28.6177 113.171 29.953V34.4782C113.171 35.2386 112.559 35.832 111.798 35.832C110.982 35.832 110.444 35.2571 110.444 34.6636V34.6451C109.758 35.4055 108.812 35.9062 107.44 35.9062ZM108.293 33.9589C109.61 33.9589 110.5 33.2356 110.5 32.2156V31.7148C110.018 31.4923 109.387 31.3439 108.701 31.3439C107.495 31.3439 106.754 31.8261 106.754 32.7163V32.7534C106.754 33.5138 107.384 33.9589 108.293 33.9589ZM115.596 34.4225V27.0784C115.596 26.2994 116.227 25.6689 117.006 25.6689C117.785 25.6689 118.415 26.2994 118.415 27.0784V27.1896C119.064 26.3551 119.899 25.5947 121.327 25.5947C123.46 25.5947 124.702 27.0042 124.702 29.2853V34.4225C124.702 35.2015 124.072 35.832 123.293 35.832C122.514 35.832 121.883 35.2015 121.883 34.4225V30.1755C121.883 28.8402 121.253 28.154 120.177 28.154C119.101 28.154 118.415 28.8402 118.415 30.1755V34.4225C118.415 35.2015 117.785 35.832 117.006 35.832C116.227 35.832 115.596 35.2015 115.596 34.4225Z" fill="#11141E"/>
</svg>
