<svg width="24" height="25" viewBox="0 0 24 25" fill="none" xmlns="http://www.w3.org/2000/svg">
    <path fill-rule="evenodd" clip-rule="evenodd" d="M12 4.12952C7.58172 4.12952 4 7.71124 4 12.1295C4 16.5478 7.58172 20.1295 12 20.1295C16.4183 20.1295 20 16.5478 20 12.1295C20 7.71124 16.4183 4.12952 12 4.12952ZM2 12.1295C2 6.60667 6.47715 2.12952 12 2.12952C17.5228 2.12952 22 6.60667 22 12.1295C22 17.6524 17.5228 22.1295 12 22.1295C6.47715 22.1295 2 17.6524 2 12.1295Z" fill="#FFCC23"/>
    <path fill-rule="evenodd" clip-rule="evenodd" d="M15.7071 9.42241C16.0976 9.81293 16.0976 10.4461 15.7071 10.8366L11.7071 14.8366C11.3166 15.2271 10.6834 15.2271 10.2929 14.8366L8.29289 12.8366C7.90237 12.4461 7.90237 11.8129 8.29289 11.4224C8.68342 11.0319 9.31658 11.0319 9.70711 11.4224L11 12.7153L14.2929 9.42241C14.6834 9.03189 15.3166 9.03189 15.7071 9.42241Z" fill="#FFCC23"/>
</svg>
