<svg width="24" height="24" viewBox="0 0 24 24" fill="none" xmlns="http://www.w3.org/2000/svg">
    <path fill-rule="evenodd" clip-rule="evenodd" d="M2 7C2 4.23858 4.23858 2 7 2H17C19.7614 2 22 4.23858 22 7V17C22 19.7614 19.7614 22 17 22H7C4.23858 22 2 19.7614 2 17V7ZM7 4C5.34315 4 4 5.34315 4 7V17C4 18.6569 5.34315 20 7 20H17C18.6569 20 20 18.6569 20 17V7C20 5.34315 18.6569 4 17 4H7Z" fill="#FFCC23"/>
    <path fill-rule="evenodd" clip-rule="evenodd" d="M13.6954 10.2035C14.8948 8.76421 17.1053 8.76421 18.3047 10.2035L21.7683 14.3597C22.1218 14.784 22.0645 15.4146 21.6402 15.7681C21.216 16.1217 20.5854 16.0644 20.2318 15.6401L16.7683 11.4838C16.3685 11.0041 15.6316 11.0041 15.2318 11.4838L6.86566 21.5233C6.51209 21.9475 5.88153 22.0049 5.45725 21.6513C5.03298 21.2977 4.97565 20.6672 5.32922 20.2429L13.6954 10.2035Z" fill="#FFCC23"/>
    <path fill-rule="evenodd" clip-rule="evenodd" d="M4.60969 13.3422C5.84292 11.835 8.16307 11.884 9.33157 13.442L10.8 15.3999C11.1314 15.8417 11.0419 16.4685 10.6 16.7999C10.1582 17.1313 9.5314 17.0417 9.20003 16.5999L7.73157 14.642C7.34207 14.1226 6.56868 14.1063 6.15761 14.6087L3.77399 17.522C3.42426 17.9495 2.79424 18.0125 2.36679 17.6627C1.93935 17.313 1.87635 16.683 2.22607 16.2556L4.60969 13.3422Z" fill="#FFCC23"/>
    <path fill-rule="evenodd" clip-rule="evenodd" d="M9 7C8.72386 7 8.5 7.22386 8.5 7.5C8.5 7.77614 8.72386 8 9 8C9.27614 8 9.5 7.77614 9.5 7.5C9.5 7.22386 9.27614 7 9 7ZM6.5 7.5C6.5 6.11929 7.61929 5 9 5C10.3807 5 11.5 6.11929 11.5 7.5C11.5 8.88071 10.3807 10 9 10C7.61929 10 6.5 8.88071 6.5 7.5Z" fill="#FFCC23"/>
</svg>
