<svg width="146" height="31" viewBox="0 0 146 31" fill="none" xmlns="http://www.w3.org/2000/svg">
<path d="M27.4009 7.76069C28.6064 9.84834 27.9926 11.5944 25.5595 12.999C24.7719 13.4536 23.4821 13.8933 21.6899 14.3179C19.1546 14.9214 17.6307 15.3085 17.1181 15.4793L18.1009 15.7564C18.8858 15.9757 19.7498 16.1963 20.6928 16.4182C24.4669 17.3358 26.74 18.4632 27.512 19.8002C27.9184 20.5039 27.9879 21.3708 27.7207 22.4007C27.4652 23.4239 26.9555 24.1561 26.1915 24.5971C25.4274 25.0381 24.7332 25.22 24.1086 25.1427C23.4958 25.0585 22.8809 24.8349 22.2637 24.4718C21.6534 24.1205 21.046 23.6657 20.4416 23.1076C19.844 22.5613 19.2539 21.9871 18.6712 21.3852C18.1071 20.7882 17.559 20.2054 17.0269 19.6368C16.4949 19.0683 15.9926 18.592 15.5201 18.2079C15.6666 18.7332 15.8615 19.3557 16.1047 20.0754C16.3479 20.7951 16.5811 21.5518 16.8044 22.3455C18.0434 26.7439 17.7813 29.452 16.0181 30.4698C15.0896 31.0058 14.1065 31.1354 13.069 30.8586C12.0315 30.5818 11.3198 30.1091 10.9337 29.4406C10.5545 28.7838 10.3735 28.0361 10.3907 27.1973C10.4264 26.3635 10.5444 25.4822 10.7447 24.5535C10.9517 23.6364 11.1949 22.7141 11.4743 21.7866C11.7537 20.8591 11.9761 19.9957 12.1415 19.1965L12.3277 18.3384L11.7064 18.9316C11.2032 19.3629 10.7085 19.8361 10.2224 20.3513C9.73622 20.8665 9.04549 21.5701 8.15014 22.4623C7.27332 23.3594 6.51755 23.9912 5.88282 24.3576C4.75441 25.0089 3.73132 25.232 2.81355 25.0269C1.89578 24.8217 1.14657 24.2299 0.565933 23.2515C-0.275638 21.7669 -0.178615 20.4286 0.857003 19.2366C1.17538 18.8651 1.59904 18.5267 2.12798 18.2214C2.65692 17.9161 3.31466 17.6302 4.10118 17.3638C4.88771 17.0974 5.6819 16.8579 6.48376 16.6452C7.29737 16.4258 8.08499 16.2291 8.8466 16.0553C9.60822 15.8815 10.2639 15.7142 10.8135 15.5533L9.87611 15.2734C9.08764 14.9936 8.22525 14.7486 7.28896 14.5385C6.35266 14.3283 5.43897 14.0895 4.5479 13.822C2.43228 13.198 1.06293 12.3465 0.439871 11.2675C0.0335261 10.5638 -0.053664 9.70713 0.178302 8.69751C0.422023 7.6811 0.925896 6.95237 1.68992 6.51133C2.4657 6.0635 3.16925 5.88412 3.80056 5.97319C4.44362 6.05547 5.08299 6.28063 5.71866 6.64866C6.35432 7.01669 6.98361 7.48223 7.60651 8.04529C8.24795 8.61328 8.85411 9.20163 9.42502 9.81034C10.0077 10.4123 10.5558 10.995 11.0693 11.5587C11.6014 12.1273 12.0793 12.602 12.503 12.9829C12.3849 12.4256 12.2067 11.7778 11.9685 11.0396C11.7488 10.3063 11.524 9.53696 11.2939 8.73148C10.7112 6.69093 10.4278 5.08743 10.4439 3.92098C10.4498 2.2756 10.9523 1.16453 11.9514 0.587782C12.9623 0.00424833 13.9654 -0.144798 14.9609 0.140642C15.9631 0.437811 16.6606 0.926518 17.0534 1.60676C17.453 2.29874 17.6408 3.05823 17.6168 3.88523C17.5996 4.72396 17.4841 5.59599 17.2703 6.50132C17.0682 7.39986 16.8182 8.31042 16.5203 9.233C16.2342 10.1488 16.0059 11.0155 15.8355 11.8332L15.6717 12.6081C15.7572 12.5118 15.8553 12.4239 15.9661 12.3443C16.3653 12.0044 16.8768 11.5059 17.5004 10.8488C18.1307 10.2034 18.8852 9.44727 19.7638 8.58042C20.6424 7.71356 21.4226 7.08336 22.1044 6.68981C23.268 6.01807 24.2995 5.78232 25.1987 5.98256C26.098 6.1828 26.832 6.77551 27.4009 7.76069Z" fill="#FE60C8"/>
<path d="M56.9584 12.8188H53.859C53.7706 12.3192 53.6076 11.8767 53.37 11.4912C53.1324 11.1002 52.8369 10.769 52.4833 10.4975C52.1297 10.226 51.7264 10.0224 51.2734 9.88663C50.8258 9.74545 50.3424 9.67486 49.8231 9.67486C48.9005 9.67486 48.0828 9.90292 47.3701 10.359C46.6574 10.8097 46.0994 11.4722 45.6961 12.3464C45.2928 13.2152 45.0911 14.2767 45.0911 15.5311C45.0911 16.8071 45.2928 17.8822 45.6961 18.7564C46.1049 19.6252 46.6629 20.2823 47.3701 20.7275C48.0828 21.1673 48.8977 21.3872 49.8148 21.3872C50.3231 21.3872 50.7982 21.3221 51.2402 21.1918C51.6877 21.056 52.0883 20.8578 52.4419 20.5972C52.801 20.3366 53.1021 20.0162 53.3452 19.6361C53.5938 19.256 53.765 18.8216 53.859 18.3329L56.9584 18.3492C56.8423 19.142 56.591 19.8859 56.2042 20.5809C55.823 21.2759 55.323 21.8895 54.7043 22.4216C54.0855 22.9484 53.3617 23.361 52.533 23.6597C51.7043 23.9529 50.7844 24.0995 49.7734 24.0995C48.2817 24.0995 46.9502 23.7601 45.779 23.0814C44.6077 22.4026 43.6851 21.4225 43.011 20.1411C42.337 18.8596 42 17.3229 42 15.5311C42 13.7337 42.3398 12.1971 43.0193 10.921C43.6989 9.63957 44.6243 8.65946 45.7955 7.98072C46.9668 7.30198 48.2927 6.9626 49.7734 6.9626C50.7181 6.9626 51.5966 7.09292 52.4087 7.35356C53.2208 7.6142 53.9446 7.99701 54.5799 8.50199C55.2153 9.00155 55.7374 9.61513 56.1462 10.3427C56.5606 11.0649 56.8313 11.8903 56.9584 12.8188Z" fill="#11141E"/>
<path d="M62.6413 16.541V23.8714H59.6413V7.19066H62.575V13.4867H62.7242C63.0225 12.7808 63.4838 12.2242 64.1081 11.817C64.738 11.4043 65.5391 11.198 66.5114 11.198C67.3954 11.198 68.1661 11.3799 68.8235 11.7437C69.481 12.1075 69.9893 12.6396 70.3484 13.3401C70.713 14.0405 70.8953 14.8958 70.8953 15.9057V23.8714H67.8954V16.3618C67.8954 15.5202 67.6744 14.8659 67.2324 14.3989C66.7959 13.9265 66.1827 13.6903 65.3926 13.6903C64.8623 13.6903 64.3871 13.8043 63.9672 14.0324C63.5529 14.255 63.2269 14.5781 62.9894 15.0016C62.7573 15.4252 62.6413 15.9383 62.6413 16.541Z" fill="#11141E"/>
<path d="M73.9533 23.8714V11.3609H76.9533V23.8714H73.9533ZM75.4616 9.58527C74.9864 9.58527 74.5776 9.43051 74.2351 9.12101C73.8925 8.80607 73.7213 8.42869 73.7213 7.98886C73.7213 7.54361 73.8925 7.16623 74.2351 6.85672C74.5776 6.54178 74.9864 6.38432 75.4616 6.38432C75.9422 6.38432 76.3511 6.54178 76.6881 6.85672C77.0306 7.16623 77.2019 7.54361 77.2019 7.98886C77.2019 8.42869 77.0306 8.80607 76.6881 9.12101C76.3511 9.43051 75.9422 9.58527 75.4616 9.58527Z" fill="#11141E"/>
<path d="M94.2445 11.8098C93.7507 11.6232 93.2227 11.5299 92.6606 11.5299C91.5059 11.5299 90.4994 11.9442 89.6409 12.773C88.7901 13.5943 88.3647 14.5798 88.3647 15.7296C88.3647 16.4986 88.5166 17.0996 88.8205 17.5327C89.1244 17.9657 89.5384 18.1822 90.0626 18.1822C90.5867 18.1822 91.1641 18.0516 91.7946 17.7902C92.4327 17.5215 93.3671 16.9428 94.5977 16.0544V23.3451C92.9796 23.9872 91.259 24.3082 89.4358 24.3082C87.6203 24.3082 85.9452 23.9648 84.4107 23.2779C81.9722 22.1804 80.3655 20.4631 79.5907 18.1262C79.3324 17.3273 79.1994 16.4463 79.1918 15.4832C79.1918 14.5201 79.3134 13.598 79.5565 12.717C79.7996 11.836 80.1528 11.0222 80.6162 10.2755C81.543 8.77485 82.842 7.59893 84.5132 6.74778C86.1921 5.89664 88.114 5.4748 90.2791 5.48227C91.9275 5.48227 93.2493 5.66519 94.2445 6.03103V11.8098Z" fill="#11141E"/>
<path d="M103.748 23.8714H97.2869V5.0231H103.748V23.8714Z" fill="#11141E"/>
<path d="M110.026 3.5C111.143 3.5 111.971 3.73145 112.51 4.19435C113.05 4.64979 113.316 5.23215 113.308 5.94144C113.308 6.65072 112.962 7.30401 112.271 7.90131C111.587 8.4986 110.672 8.79725 109.525 8.79725C107.915 8.79725 106.912 8.31941 106.517 7.36374C106.403 7.09496 106.346 6.79631 106.346 6.4678C106.346 6.13929 106.426 5.79585 106.585 5.43747C106.745 5.07909 106.984 4.75805 107.303 4.47434C108.009 3.82478 108.917 3.5 110.026 3.5ZM113.114 23.8714H106.517V9.95077H113.114V23.8714Z" fill="#11141E"/>
<path d="M132.383 15.0464C132.376 17.1818 131.658 19.0856 130.229 20.758C129.166 22.0049 127.719 22.8934 125.888 23.4235C124.938 23.6997 123.86 23.849 122.652 23.8714V27.5H115.883V9.95077H119.621L121.205 12.101C122.906 10.3166 124.695 9.42441 126.572 9.42441C128.448 9.42441 129.884 9.9545 130.879 11.0147C131.882 12.0749 132.383 13.4188 132.383 15.0464ZM126.059 14.1393C125.899 14.0796 125.702 14.0497 125.466 14.0497C124.988 14.0497 124.471 14.3222 123.917 14.8672C123.37 15.4048 122.948 16.0208 122.652 16.7151V19.9293C122.781 19.8397 122.971 19.7203 123.222 19.5709C123.48 19.4141 123.761 19.2275 124.065 19.011C125.858 17.7566 126.754 16.4799 126.754 15.1808C126.754 14.6582 126.522 14.311 126.059 14.1393Z" fill="#11141E"/>
<path d="M145.111 14.1281C143.425 13.7399 142.198 13.5457 141.431 13.5457C141.21 13.5457 141.039 13.5943 140.918 13.6913C140.804 13.7884 140.747 13.8966 140.747 14.0161C140.747 14.2625 141.058 14.5126 141.681 14.7664C142.312 15.0128 142.889 15.2555 143.413 15.4944C143.938 15.7333 144.39 16.0245 144.769 16.3679C145.59 17.1146 146 18.227 146 19.7053C146 21.1762 145.457 22.3073 144.371 23.0987C143.284 23.8901 141.814 24.2858 139.961 24.2858C138.107 24.2858 136.626 24.1178 135.517 23.7818C135.031 23.64 134.658 23.472 134.4 23.2779V19.123C134.506 19.1304 134.692 19.179 134.958 19.2685C135.224 19.3581 135.665 19.5 136.28 19.6941C136.895 19.8808 137.454 19.9741 137.955 19.9741C138.464 19.9741 138.719 19.7912 138.719 19.4253C138.719 19.1416 138.491 18.8654 138.035 18.5966C137.83 18.4771 137.598 18.3539 137.34 18.227C136.269 17.7119 135.502 17.1183 135.038 16.4463C134.582 15.7669 134.354 14.9718 134.354 14.0609C134.354 12.4407 135.023 11.2312 136.36 10.4323C137.484 9.76038 138.954 9.42441 140.77 9.42441C142.038 9.42441 143.311 9.5476 144.587 9.79398C144.861 9.84624 145.035 9.88357 145.111 9.90597V14.1281Z" fill="#11141E"/>
</svg>
