<svg width="166" height="32" viewBox="0 0 166 32" fill="none" xmlns="http://www.w3.org/2000/svg">
<path d="M27.4009 8.26069C28.6064 10.3483 27.9926 12.0944 25.5595 13.499C24.7719 13.9536 23.4821 14.3933 21.6899 14.8179C19.1546 15.4214 17.6307 15.8085 17.1181 15.9793L18.1009 16.2564C18.8858 16.4757 19.7498 16.6963 20.6928 16.9182C24.4669 17.8358 26.74 18.9632 27.512 20.3002C27.9184 21.0039 27.9879 21.8708 27.7207 22.9007C27.4652 23.9239 26.9555 24.6561 26.1915 25.0971C25.4274 25.5381 24.7332 25.72 24.1086 25.6427C23.4958 25.5585 22.8809 25.3349 22.2637 24.9718C21.6534 24.6205 21.046 24.1657 20.4416 23.6076C19.844 23.0613 19.2539 22.4871 18.6712 21.8852C18.1071 21.2882 17.559 20.7054 17.0269 20.1368C16.4949 19.5683 15.9926 19.092 15.5201 18.7079C15.6666 19.2332 15.8615 19.8557 16.1047 20.5754C16.3479 21.2951 16.5811 22.0518 16.8044 22.8455C18.0434 27.2439 17.7813 29.952 16.0181 30.9698C15.0896 31.5058 14.1065 31.6354 13.069 31.3586C12.0315 31.0818 11.3198 30.6091 10.9337 29.9406C10.5545 29.2838 10.3735 28.5361 10.3907 27.6973C10.4264 26.8635 10.5444 25.9822 10.7447 25.0535C10.9517 24.1364 11.1949 23.2141 11.4743 22.2866C11.7537 21.3591 11.9761 20.4957 12.1415 19.6965L12.3277 18.8384L11.7064 19.4316C11.2032 19.8629 10.7085 20.3361 10.2224 20.8513C9.73622 21.3665 9.04549 22.0701 8.15014 22.9623C7.27332 23.8594 6.51755 24.4912 5.88282 24.8576C4.75441 25.5089 3.73132 25.732 2.81355 25.5269C1.89578 25.3217 1.14657 24.7299 0.565933 23.7515C-0.275638 22.2669 -0.178615 20.9286 0.857003 19.7366C1.17538 19.3651 1.59904 19.0267 2.12798 18.7214C2.65692 18.4161 3.31466 18.1302 4.10118 17.8638C4.88771 17.5974 5.6819 17.3579 6.48376 17.1452C7.29737 16.9258 8.08499 16.7291 8.8466 16.5553C9.60822 16.3815 10.2639 16.2142 10.8135 16.0533L9.87611 15.7734C9.08764 15.4936 8.22525 15.2486 7.28896 15.0385C6.35266 14.8283 5.43897 14.5895 4.5479 14.322C2.43228 13.698 1.06293 12.8465 0.439871 11.7675C0.0335261 11.0638 -0.053664 10.2071 0.178302 9.19751C0.422023 8.1811 0.925896 7.45237 1.68992 7.01133C2.4657 6.5635 3.16925 6.38412 3.80056 6.47319C4.44362 6.55547 5.08299 6.78063 5.71866 7.14866C6.35432 7.51669 6.98361 7.98223 7.60651 8.54529C8.24795 9.11328 8.85411 9.70163 9.42502 10.3103C10.0077 10.9123 10.5558 11.495 11.0693 12.0587C11.6014 12.6273 12.0793 13.102 12.503 13.4829C12.3849 12.9256 12.2067 12.2778 11.9685 11.5396C11.7488 10.8063 11.524 10.037 11.2939 9.23148C10.7112 7.19093 10.4278 5.58743 10.4439 4.42098C10.4498 2.7756 10.9523 1.66453 11.9514 1.08778C12.9623 0.504248 13.9654 0.355202 14.9609 0.640642C15.9631 0.937811 16.6606 1.42652 17.0534 2.10676C17.453 2.79874 17.6408 3.55823 17.6168 4.38523C17.5996 5.22396 17.4841 6.09599 17.2703 7.00132C17.0682 7.89986 16.8182 8.81042 16.5203 9.733C16.2342 10.6488 16.0059 11.5155 15.8355 12.3332L15.6717 13.1081C15.7572 13.0118 15.8553 12.9239 15.9661 12.8443C16.3653 12.5044 16.8768 12.0059 17.5004 11.3488C18.1307 10.7034 18.8852 9.94727 19.7638 9.08042C20.6424 8.21356 21.4226 7.58336 22.1044 7.18981C23.268 6.51807 24.2995 6.28232 25.1987 6.48256C26.098 6.6828 26.832 7.27551 27.4009 8.26069Z" fill="#FE60C8"/>
<path d="M42 26.4297V9.62969H49.08C50.872 9.62969 52.448 9.98169 53.808 10.6857C55.184 11.3897 56.248 12.3737 57 13.6377C57.768 14.9017 58.152 16.3657 58.152 18.0297C58.152 19.6937 57.768 21.1577 57 22.4217C56.248 23.6857 55.184 24.6697 53.808 25.3737C52.448 26.0777 50.872 26.4297 49.08 26.4297H42ZM44.4 24.3417H48.936C50.328 24.3417 51.528 24.0777 52.536 23.5497C53.56 23.0217 54.352 22.2857 54.912 21.3417C55.472 20.3817 55.752 19.2777 55.752 18.0297C55.752 16.7657 55.472 15.6617 54.912 14.7177C54.352 13.7737 53.56 13.0377 52.536 12.5097C51.528 11.9817 50.328 11.7177 48.936 11.7177H44.4V24.3417Z" fill="#11141E"/>
<path d="M66.9161 26.5737C65.5561 26.5737 64.3561 26.2937 63.3161 25.7337C62.2921 25.1737 61.4921 24.4057 60.9161 23.4297C60.3561 22.4537 60.0761 21.3337 60.0761 20.0697C60.0761 18.8057 60.3481 17.6857 60.8921 16.7097C61.4521 15.7337 62.2121 14.9737 63.1721 14.4297C64.1481 13.8697 65.2441 13.5897 66.4601 13.5897C67.6921 13.5897 68.7801 13.8617 69.7241 14.4057C70.6681 14.9497 71.4041 15.7177 71.9321 16.7097C72.4761 17.6857 72.7481 18.8297 72.7481 20.1417C72.7481 20.2377 72.7401 20.3497 72.7241 20.4777C72.7241 20.6057 72.7161 20.7257 72.7001 20.8377H61.8761V19.1817H71.5001L70.5641 19.7577C70.5801 18.9417 70.4121 18.2137 70.0601 17.5737C69.7081 16.9337 69.2201 16.4377 68.5961 16.0857C67.9881 15.7177 67.2761 15.5337 66.4601 15.5337C65.6601 15.5337 64.9481 15.7177 64.3241 16.0857C63.7001 16.4377 63.2121 16.9417 62.8601 17.5977C62.5081 18.2377 62.3321 18.9737 62.3321 19.8057V20.1897C62.3321 21.0377 62.5241 21.7977 62.9081 22.4697C63.3081 23.1257 63.8601 23.6377 64.5641 24.0057C65.2681 24.3737 66.0761 24.5577 66.9881 24.5577C67.7401 24.5577 68.4201 24.4297 69.0281 24.1737C69.6521 23.9177 70.1961 23.5337 70.6601 23.0217L71.9321 24.5097C71.3561 25.1817 70.6361 25.6937 69.7721 26.0457C68.9241 26.3977 67.9721 26.5737 66.9161 26.5737Z" fill="#11141E"/>
<path d="M89.7188 13.8086C89.2109 13.6133 88.668 13.5156 88.0898 13.5156C86.9023 13.5156 85.8672 13.9492 84.9844 14.8164C84.1094 15.6758 83.6719 16.707 83.6719 17.9102C83.6719 18.7148 83.8281 19.3438 84.1406 19.7969C84.4531 20.25 84.8789 20.4766 85.418 20.4766C85.957 20.4766 86.5508 20.3398 87.1992 20.0664C87.8555 19.7852 88.8164 19.1797 90.082 18.25V25.8789C88.418 26.5508 86.6484 26.8867 84.7734 26.8867C82.9062 26.8867 81.1836 26.5273 79.6055 25.8086C77.0977 24.6602 75.4453 22.8633 74.6484 20.418C74.3828 19.582 74.2461 18.6602 74.2383 17.6523C74.2383 16.6445 74.3633 15.6797 74.6133 14.7578C74.8633 13.8359 75.2266 12.9844 75.7031 12.2031C76.6562 10.6328 77.9922 9.40234 79.7109 8.51172C81.4375 7.62109 83.4141 7.17969 85.6406 7.1875C87.3359 7.1875 88.6953 7.37891 89.7188 7.76172V13.8086Z" fill="#11141E"/>
<path d="M103.002 17.3594C102.283 17.3594 101.545 17.6211 100.787 18.1445C100.03 18.668 99.6467 19.1641 99.6389 19.6328V26.4297H92.5842V11.8633H99.6389V13.4219C100.037 12.8203 100.53 12.3398 101.115 11.9805C101.709 11.6211 102.338 11.4062 103.002 11.3359V17.3594Z" fill="#11141E"/>
<path d="M114.364 16.0352C114.364 15.3477 114.043 15.0039 113.403 15.0039C112.668 15.0742 112.192 15.4531 111.973 16.1406C111.864 16.4688 111.786 16.8516 111.739 17.2891C111.7 17.7188 111.637 18.1797 111.551 18.6719L114.118 18.0977L114.34 16.3047L114.364 16.0352ZM112.782 21.3672C112.782 21.3672 112.567 21.3672 112.137 21.3672C111.934 21.3672 111.739 21.3594 111.551 21.3438C111.551 22.2734 112.047 22.7812 113.04 22.8672C113.313 22.8906 113.579 22.9023 113.836 22.9023C114.5 22.9023 115.333 22.75 116.333 22.4453C117.34 22.1406 118.243 21.6445 119.04 20.957L119.766 24.6016C118.024 26.1094 115.391 26.8633 111.868 26.8633C109.844 26.8633 108.106 26.2734 106.653 25.0938C105.075 23.8047 104.286 22.0195 104.286 19.7383C104.286 18.0195 104.731 16.4766 105.622 15.1094C106.45 13.8594 107.571 12.9102 108.985 12.2617C110.399 11.6133 111.926 11.2891 113.567 11.2891C115.692 11.2891 117.297 11.7539 118.383 12.6836C119.477 13.6133 120.02 14.7617 120.012 16.1289C120.012 17.4961 119.36 18.7109 118.055 19.7734C116.75 20.8359 114.993 21.3672 112.782 21.3672Z" fill="#11141E"/>
<path d="M123.346 25.1406C122.721 24.5547 122.221 23.8203 121.846 22.9375C121.479 22.0469 121.296 21.0898 121.296 20.0664C121.296 19.043 121.397 18.1562 121.6 17.4062C122.007 15.9141 122.718 14.6602 123.733 13.6445C124.218 13.1445 124.757 12.7227 125.35 12.3789C126.569 11.668 127.854 11.3125 129.206 11.3125C130.565 11.3125 131.757 11.7617 132.78 12.6602C133.108 12.9492 133.393 13.2812 133.635 13.6562L135.311 11.8633H139.155V26.4297H135.311L133.635 24.0039C132.354 25.8945 130.413 26.8438 127.811 26.8516C127.093 26.8594 126.323 26.7188 125.503 26.4297C124.69 26.1484 123.971 25.7188 123.346 25.1406ZM132.839 16.2812C132.557 16.1172 132.221 16.0352 131.831 16.0352C131.44 16.0352 131.026 16.1758 130.589 16.457C130.159 16.7305 129.772 17.0781 129.428 17.5C128.663 18.4453 128.28 19.4062 128.28 20.3828C128.28 21.0703 128.491 21.5547 128.913 21.8359C129.303 22.0938 129.897 22.0586 130.694 21.7305C131.499 21.3945 132.214 20.9609 132.839 20.4297V16.2812Z" fill="#11141E"/>
<path d="M149.614 16.1523L151.606 11.8633H157.196L150.013 26.4062C149.872 26.7109 149.567 26.8633 149.099 26.8633C148.63 26.8633 148.313 26.7109 148.149 26.4062L140.591 11.8633H147.446L149.614 16.1523Z" fill="#11141E"/>
<path d="M162.312 5.11328C163.46 5.11328 164.312 5.35547 164.866 5.83984C165.421 6.31641 165.695 6.92578 165.687 7.66797C165.687 8.41016 165.331 9.09375 164.62 9.71875C163.917 10.3438 162.976 10.6562 161.796 10.6562C160.14 10.6562 159.109 10.1562 158.702 9.15625C158.585 8.875 158.527 8.5625 158.527 8.21875C158.527 7.875 158.609 7.51562 158.773 7.14062C158.937 6.76562 159.183 6.42969 159.511 6.13281C160.238 5.45312 161.171 5.11328 162.312 5.11328ZM165.488 26.4297H158.702V11.8633H165.488V26.4297Z" fill="#11141E"/>
</svg>
