<svg width="28" height="31" viewBox="0 0 28 31" fill="none" xmlns="http://www.w3.org/2000/svg">
<path d="M27.4009 7.76069C28.6064 9.84834 27.9926 11.5944 25.5595 12.999C24.7719 13.4536 23.4821 13.8933 21.6899 14.3179C19.1546 14.9214 17.6307 15.3085 17.1181 15.4793L18.1009 15.7564C18.8858 15.9757 19.7498 16.1963 20.6928 16.4182C24.4669 17.3358 26.74 18.4632 27.512 19.8002C27.9184 20.5039 27.9879 21.3708 27.7207 22.4007C27.4652 23.4239 26.9555 24.1561 26.1915 24.5971C25.4274 25.0381 24.7332 25.22 24.1086 25.1427C23.4958 25.0585 22.8809 24.8349 22.2637 24.4718C21.6534 24.1205 21.046 23.6657 20.4416 23.1076C19.844 22.5613 19.2539 21.9871 18.6712 21.3852C18.1071 20.7882 17.559 20.2054 17.0269 19.6368C16.4949 19.0683 15.9926 18.592 15.5201 18.2079C15.6666 18.7332 15.8615 19.3557 16.1047 20.0754C16.3479 20.7951 16.5811 21.5518 16.8044 22.3455C18.0434 26.7439 17.7813 29.452 16.0181 30.4698C15.0896 31.0058 14.1065 31.1354 13.069 30.8586C12.0315 30.5818 11.3198 30.1091 10.9337 29.4406C10.5545 28.7838 10.3735 28.0361 10.3907 27.1973C10.4264 26.3635 10.5444 25.4822 10.7447 24.5535C10.9517 23.6364 11.1949 22.7141 11.4743 21.7866C11.7537 20.8591 11.9761 19.9957 12.1415 19.1965L12.3277 18.3384L11.7064 18.9316C11.2032 19.3629 10.7085 19.8361 10.2224 20.3513C9.73622 20.8665 9.04549 21.5701 8.15014 22.4623C7.27332 23.3594 6.51755 23.9912 5.88282 24.3576C4.75441 25.0089 3.73132 25.232 2.81355 25.0269C1.89578 24.8217 1.14657 24.2299 0.565933 23.2515C-0.275638 21.7669 -0.178615 20.4286 0.857003 19.2366C1.17538 18.8651 1.59904 18.5267 2.12798 18.2214C2.65692 17.9161 3.31466 17.6302 4.10118 17.3638C4.88771 17.0974 5.6819 16.8579 6.48376 16.6452C7.29737 16.4258 8.08499 16.2291 8.8466 16.0553C9.60822 15.8815 10.2639 15.7142 10.8135 15.5533L9.87611 15.2734C9.08764 14.9936 8.22525 14.7486 7.28896 14.5385C6.35266 14.3283 5.43897 14.0895 4.5479 13.822C2.43228 13.198 1.06293 12.3465 0.439871 11.2675C0.0335261 10.5638 -0.053664 9.70713 0.178302 8.69751C0.422023 7.6811 0.925896 6.95237 1.68992 6.51133C2.4657 6.0635 3.16925 5.88412 3.80056 5.97319C4.44362 6.05547 5.08299 6.28063 5.71866 6.64866C6.35432 7.01669 6.98361 7.48223 7.60651 8.04529C8.24795 8.61328 8.85411 9.20163 9.42502 9.81034C10.0077 10.4123 10.5558 10.995 11.0693 11.5587C11.6014 12.1273 12.0793 12.602 12.503 12.9829C12.3849 12.4256 12.2067 11.7778 11.9685 11.0396C11.7488 10.3063 11.524 9.53696 11.2939 8.73148C10.7112 6.69093 10.4278 5.08743 10.4439 3.92098C10.4498 2.2756 10.9523 1.16453 11.9514 0.587782C12.9623 0.00424833 13.9654 -0.144798 14.9609 0.140642C15.9631 0.437811 16.6606 0.926518 17.0534 1.60676C17.453 2.29874 17.6408 3.05823 17.6168 3.88523C17.5996 4.72396 17.4841 5.59599 17.2703 6.50132C17.0682 7.39986 16.8182 8.31042 16.5203 9.233C16.2342 10.1488 16.0059 11.0155 15.8355 11.8332L15.6717 12.6081C15.7572 12.5118 15.8553 12.4239 15.9661 12.3443C16.3653 12.0044 16.8768 11.5059 17.5004 10.8488C18.1307 10.2034 18.8852 9.44727 19.7638 8.58042C20.6424 7.71356 21.4226 7.08336 22.1044 6.68981C23.268 6.01807 24.2995 5.78232 25.1987 5.98256C26.098 6.1828 26.832 6.77551 27.4009 7.76069Z" fill="#FE60C8"/>
</svg>
