<svg width="24" height="24" viewBox="0 0 24 24" fill="none" xmlns="http://www.w3.org/2000/svg">
    <path fill-rule="evenodd" clip-rule="evenodd" d="M12 4C7.58172 4 4 7.58172 4 12C4 16.4183 7.58172 20 12 20C16.4183 20 20 16.4183 20 12C20 7.58172 16.4183 4 12 4ZM2 12C2 6.47715 6.47715 2 12 2C17.5228 2 22 6.47715 22 12C22 17.5228 17.5228 22 12 22C6.47715 22 2 17.5228 2 12Z" fill="#FFCC23"/>
    <path fill-rule="evenodd" clip-rule="evenodd" d="M16.9122 10.2517C18.2838 11.0137 18.2838 12.9863 16.9122 13.7483L10.9713 17.0488C9.63827 17.7894 8.00004 16.8255 8.00004 15.3005L8.00004 8.69953C8.00004 7.17456 9.63827 6.21063 10.9713 6.95122L16.9122 10.2517ZM10 15.3005L15.9409 12L10 8.69953L10 15.3005Z" fill="#FFCC23"/>
</svg>
